<svg xmlns="http://www.w3.org/2000/svg" viewBox="0 0 24 24" fill="#ffffff"><title>drag-handle</title><path d="M10 7h-.2c-.1 0-.1 0-.2-.1-.1 0-.1-.1-.2-.1s-.1-.1-.1-.1c-.1-.1-.2-.2-.2-.3C9 6.3 9 6.1 9 6c0-.3.1-.5.3-.7.3-.3.7-.4 1.1-.2.1.1.2.1.3.2l.1.1c0 .1.1.1.1.2s0 .1.1.2V6c0 .3-.1.5-.3.7-.2.2-.4.3-.7.3zM14 7h-.2c-.1 0-.1 0-.2-.1-.1 0-.1-.1-.2-.1l-.1-.1c-.1-.1-.2-.2-.2-.3-.1-.1-.1-.3-.1-.4 0-.1 0-.3.1-.4 0-.1.1-.2.2-.3l.1-.1c.1 0 .1-.1.2-.1s.1 0 .2-.1c.3-.1.7 0 .9.3.1.1.2.2.2.3.1.1.1.3.1.4 0 .3-.1.5-.3.7-.2.2-.4.3-.7.3zM10 13c-.1 0-.3 0-.4-.1-.1-.1-.2-.1-.3-.2 0-.1-.1-.1-.1-.1 0-.1-.1-.1-.1-.2s0-.1-.1-.2V12c0-.1 0-.3.1-.4.1-.1.1-.2.2-.3.4-.4 1-.4 1.4 0 .1.1.2.2.2.3.1.1.1.3.1.4v.2c0 .1 0 .1-.1.2 0 .1-.1.1-.1.2l-.1.1c-.2.2-.4.3-.7.3zM14 13h-.2c-.1 0-.1 0-.2-.1-.1 0-.1-.1-.2-.1l-.1-.1c-.1-.1-.2-.2-.2-.3 0-.1-.1-.2-.1-.4 0-.1 0-.3.1-.4 0-.1.1-.2.2-.3l.1-.1c.1 0 .1-.1.2-.1s.1 0 .2-.1c.3-.1.7 0 .9.3.1.1.2.2.2.3 0 .1.1.2.1.4 0 .1 0 .3-.1.4s-.1.2-.2.3c-.2.2-.4.3-.7.3zM10 19c-.3 0-.5-.1-.7-.3-.2-.2-.3-.4-.3-.7 0-.1 0-.3.1-.4.1-.1.1-.2.2-.3.4-.4 1-.4 1.4 0 .1.1.2.2.2.3 0 .1.1.2.1.4 0 .3-.1.5-.3.7-.2.2-.4.3-.7.3zM14 19c-.3 0-.5-.1-.7-.3-.1-.1-.2-.2-.2-.3s-.1-.3-.1-.4 0-.3.1-.4c0-.1.1-.2.2-.3.2-.2.6-.3.9-.3.1 0 .1 0 .2.1.1 0 .1 0 .2.1 0 0 .1.1.2.1.1.1.2.2.2.3 0 .1.1.2.1.4 0 .3-.1.5-.3.7-.3.2-.5.3-.8.3z"/></svg>