<svg xmlns="http://www.w3.org/2000/svg" viewBox="0 0 24 24" fill="#ffffff"><path d="M21 7H8c-.6 0-1-.4-1-1s.4-1 1-1h13c.6 0 1 .4 1 1s-.4 1-1 1zM21 13H8c-.6 0-1-.4-1-1s.4-1 1-1h13c.6 0 1 .4 1 1s-.4 1-1 1zM21 19H8c-.6 0-1-.4-1-1s.4-1 1-1h13c.6 0 1 .4 1 1s-.4 1-1 1zM3 7h-.2c-.1 0-.1 0-.2-.1-.1 0-.1-.1-.2-.1s-.1-.1-.1-.1c0-.1-.1-.1-.1-.1 0-.1-.1-.1-.1-.2-.1-.1-.1-.1-.1-.2V6c0-.1 0-.3.1-.4.1-.1.1-.2.2-.3.3-.3.7-.4 1.1-.2.1.1.2.1.3.2.2.2.3.4.3.7v.2c0 .1 0 .1-.1.2 0 .1-.1.1-.1.2l-.1.1c-.2.2-.4.3-.7.3zM3 13h-.2c-.1 0-.1 0-.2-.1-.1 0-.1-.1-.2-.1s-.1-.1-.1-.1c-.2-.2-.3-.4-.3-.7 0-.1 0-.3.1-.4.1-.1.1-.2.2-.3l.1-.1c.1 0 .1-.1.2-.1s.1 0 .2-.1c.3-.1.7 0 .9.3.1.1.2.2.2.3.1.1.1.3.1.4v.2c0 .1 0 .1-.1.2 0 .1-.1.1-.1.2l-.1.1c-.2.2-.4.3-.7.3zM3 19c-.1 0-.3 0-.4-.1-.1 0-.2-.1-.3-.2-.2-.2-.3-.4-.3-.7 0-.1 0-.3.1-.4.1-.1.1-.2.2-.3.3-.3.7-.4 1.1-.2.1 0 .2.1.3.2.1.1.2.2.2.3.1.1.1.3.1.4s0 .3-.1.4c-.1.1-.1.2-.2.3-.2.2-.4.3-.7.3z"/></svg>