<svg xmlns="http://www.w3.org/2000/svg" viewBox="0 0 24 24" fill="#ffffff"><path d="M12 23.8c-.5 0-.9-.1-1.3-.3l-8-4C1.7 19 1 17.9 1 16.8V7.2c0-1.1.6-2.2 1.7-2.7l8-4c.8-.4 1.8-.4 2.7 0l8 4c1 .5 1.7 1.5 1.7 2.7v9.5c0 1.1-.6 2.2-1.7 2.7l-8 4c-.5.3-.9.4-1.4.4zm0-21.6c-.2 0-.3 0-.4.1l-8 4c-.4.2-.6.6-.6.9v9.5c0 .4.2.7.5.9l8 4c.3.1.6.1.9 0l8-4c.3-.2.6-.5.6-.9V7.2c0-.4-.2-.7-.6-.9l-8-4c-.1 0-.2-.1-.4-.1z"/><path d="M12 12c-.2 0-.3 0-.4-.1L1.9 7.1c-.5-.3-.7-.9-.5-1.4.3-.5.9-.7 1.4-.4L12 9.9l9.2-4.6c.5-.2 1.1 0 1.3.4.2.5 0 1.1-.4 1.3l-9.7 4.8c-.1.2-.2.2-.4.2z"/><path d="M12 23.8c-.6 0-1-.4-1-1V11c0-.6.4-1 1-1s1 .4 1 1v11.8c0 .5-.4 1-1 1zM17 9.5c-.2 0-.3 0-.4-.1l-10-5c-.5-.3-.7-.9-.5-1.3.3-.5.9-.7 1.3-.5l10 5c.5.2.7.8.4 1.3-.1.4-.4.6-.8.6z"/></svg>