<svg xmlns="http://www.w3.org/2000/svg" viewBox="0 0 24 24" fill="#ffffff"><path d="M8 17.4c-1.7 0-3.4-.6-4.7-1.9-2.6-2.6-2.6-6.8 0-9.3 1.3-1.3 2.9-2 4.7-2 1.8 0 3.4.7 4.7 1.9 2.6 2.6 2.6 6.8 0 9.3-1.3 1.3-3 2-4.7 2zM8 6.2c-1.2 0-2.4.5-3.3 1.3C3 9.3 3 12.2 4.8 14c1.8 1.8 4.7 1.8 6.5 0 1.8-1.8 1.8-4.7 0-6.5-.9-.8-2.1-1.3-3.3-1.3zm-3.9.6z"/><path d="M12 7.5c-.3 0-.5-.1-.7-.3-.4-.4-.4-1 0-1.4l4.4-4.1c.4-.4 1-.4 1.4 0 .4.4.4 1 0 1.4l-4.4 4.1c-.2.2-.5.3-.7.3z"/><path d="M16.4 7.2c-.6 0-1-.4-1-1V3.4h-2.8c-.6 0-1-.4-1-1s.4-1 1-1h3.8c.6 0 1 .4 1 1v3.8c0 .6-.4 1-1 1zM13.2 22.6c-1.7 0-3.4-.6-4.7-1.9-1.2-1.2-1.9-2.9-1.9-4.7 0-1.8.7-3.4 1.9-4.7 2.6-2.6 6.8-2.6 9.3 0 2.6 2.6 2.6 6.8 0 9.3-1.2 1.4-2.9 2-4.6 2zm0-11.2c-1.2 0-2.4.4-3.3 1.3-.9.9-1.3 2-1.3 3.3 0 1.2.5 2.4 1.3 3.3 1.8 1.8 4.7 1.8 6.5 0 1.8-1.8 1.8-4.7 0-6.5-.9-.9-2-1.4-3.2-1.4zm-4 .7z"/><path d="M17.4 12.9c-.3 0-.5-.1-.7-.3-.4-.4-.4-1 0-1.4l4.2-4.3c.4-.4 1-.4 1.4 0 .4.4.4 1 0 1.4l-4.2 4.3c-.2.2-.4.3-.7.3z"/><path d="M21.6 12.4c-.6 0-1-.4-1-1V8.6h-2.7c-.6 0-1-.4-1-1s.4-1 1-1h3.7c.6 0 1 .4 1 1v3.8c0 .6-.4 1-1 1z"/></svg>