<svg viewBox="0 0 24 24" xmlns="http://www.w3.org/2000/svg" xmlns:xlink="http://www.w3.org/1999/xlink"><defs><path d="M10.442 8.836l-4.84 4.872-.56-.126-1.17-.261-1.571 1.57 3.355 1.453.161.372L7.11 19.7l1.573-1.573-.378-1.713 4.868-4.867.545 1.542 2.18 6.173 1.553-1.552-1.67-8.77.391-.392 3.239-3.239c.704-.705.687-1.903-.064-2.654-.751-.751-1.95-.768-2.653-.065l-3.668 3.668-.542-.104L4.27 4.579 2.719 6.131l7.723 2.705zM1.59 7.94A1.784 1.784 0 0 1 .446 6.688a1.757 1.757 0 0 1 .46-1.667l2.032-2.032a1.755 1.755 0 0 1 1.574-.48l7.836 1.501 2.884-2.883c1.529-1.53 4.041-1.493 5.588.053 1.546 1.546 1.583 4.058.053 5.588l-2.848 2.848 1.496 7.857c.108.57-.07 1.16-.483 1.57l-2.034 2.035a1.757 1.757 0 0 1-1.658.455 1.786 1.786 0 0 1-1.253-1.134l-1.789-5.062-1.727 1.727.17.773a1.756 1.756 0 0 1-.472 1.62l-2.032 2.03c-.42.42-1.023.596-1.601.475a1.785 1.785 0 0 1-1.27-1.035l-1.3-3-2.995-1.296a1.784 1.784 0 0 1-1.039-1.27 1.757 1.757 0 0 1 .475-1.605l2.034-2.034a1.755 1.755 0 0 1 1.625-.464l.777.173 1.706-1.716L1.59 7.94z" id="a"/></defs><use xlink:href="#a" transform="translate(1 1)" fill-rule="evenodd"/></svg>