<svg viewBox="0 0 24 24" xmlns="http://www.w3.org/2000/svg"><path d="M11 10h2-2zm2 0c0 1.333-2 1.333-2 0V8c0-1.333 2-1.333 2 0v4c0 1.333-2 1.333-2 0v-2c0-1.333 2-1.333 2 0zM7.153 1.293A1 1 0 0 1 7.86 1h8.28a1 1 0 0 1 .707.293l5.86 5.86A1 1 0 0 1 23 7.86v8.28a1 1 0 0 1-.293.707l-5.86 5.86a1 1 0 0 1-.707.293H7.86a1 1 0 0 1-.707-.293l-5.86-5.86A1 1 0 0 1 1 16.14V7.86a1 1 0 0 1 .293-.707l5.86-5.86zM8.274 3L3 8.274v7.452L8.274 21h7.452L21 15.726V8.274L15.726 3H8.274zM12 17a1 1 0 1 0 0-2 1 1 0 0 0 0 2z"/></svg>