<svg viewBox="0 0 24 24" xmlns="http://www.w3.org/2000/svg" xmlns:xlink="http://www.w3.org/1999/xlink"><defs><path d="M17.025 0c.539 0 .975.507.975 1.132v19.685c0 .413-.193.793-.504.992a.86.86 0 0 1-.99-.033l-2.08-1.51-2.346 1.555a.86.86 0 0 1-1 0l-2.086-1.51-2.19 1.51a.86.86 0 0 1-1.001 0l-2.255-1.51-2.047 1.51a.86.86 0 0 1-.993.04c-.313-.197-.507-.577-.508-.99V1.13C0 .508.436 0 .975 0h16.05zM16 19.23L15.98 2H2v17.167l1.044-.786a.821.821 0 0 1 1.011 0L6.31 20l2.184-1.571a.821.821 0 0 1 1.012 0L11.586 20l2.346-1.595a.82.82 0 0 1 .999 0L16 19.23zM10 10c0 .6-.4 1-1 1s-1-.4-1-1V6c0-.6.4-1 1-1s1 .4 1 1v4zm-.2 4.704c-.2.2-.4.3-.8.3-.3 0-.5-.1-.7-.3-.2-.2-.3-.4-.3-.7 0-.2.1-.3.1-.4 0-.1.1-.2.2-.3.3-.3.7-.4 1.1-.2.1 0 .1.1.2.1s.2.1.2.1c.1.1.1.2.2.3.1.1.1.3.1.4 0 .1-.1.3-.1.4 0 .1-.1.2-.2.3z" id="a"/></defs><use xlink:href="#a" transform="translate(3 1)" fill-rule="evenodd"/></svg>