<svg viewBox="0 0 24 24" xmlns="http://www.w3.org/2000/svg"><path d="M20.796 18.606a10.983 10.983 0 0 1-9.959 4.333 11.01 11.01 0 0 1-8.948-6.6A10.964 10.964 0 0 1 1 12c0-2.413.777-4.645 2.095-6.459a.994.994 0 0 1 .109-.147 10.983 10.983 0 0 1 9.959-4.333 11.01 11.01 0 0 1 8.948 6.6C22.683 8.99 23 10.458 23 12a10.95 10.95 0 0 1-2.095 6.459.994.994 0 0 1-.109.147zM10.355 20.85L12.578 17H4.516a9.005 9.005 0 0 0 5.839 3.85zM3.512 15h4.446l-1.431-2.478a.999.999 0 0 1-.024-.042L3.926 8.019A8.963 8.963 0 0 0 3 12c0 1.052.18 2.062.512 3zm1.646-8.847L7.38 10l1.44-2.49a1 1 0 0 1 .01-.017l2.58-4.473a8.98 8.98 0 0 0-6.253 3.134zm8.487-3.003L11.422 7h8.062a9.005 9.005 0 0 0-5.839-3.85zM20.488 9h-4.446l1.431 2.478a.999.999 0 0 1 .024.042l2.577 4.461c.593-1.2.926-2.552.926-3.981 0-1.052-.18-2.062-.512-3zm-1.646 8.847L16.62 14l-1.44 2.49a1 1 0 0 1-.01.017l-2.58 4.473a8.98 8.98 0 0 0 6.253-3.134zM13.732 9h-3.465l-1.732 3 1.732 3h3.466l1.732-3-1.732-3z"/></svg>