<svg viewBox="0 0 24 24" xmlns="http://www.w3.org/2000/svg"><path d="M12.865 20.498a1 1 0 0 1-1.73 0 1 1 0 0 0-1.73 1.004 3 3 0 0 0 5.19 0 1 1 0 0 0-1.73-1.004zm6.73-7.762A16.89 16.89 0 0 1 19 8.016a1 1 0 0 0-2-.032 18.89 18.89 0 0 0 .665 5.28 1 1 0 1 0 1.93-.528zM5.378 15.604C6.398 13.734 7 11.225 7 8a4.864 4.864 0 0 1 .216-1.445 1 1 0 0 0-1.912-.59A6.86 6.86 0 0 0 5 8.002c0 2.898-.523 5.077-1.378 6.644a5.941 5.941 0 0 1-.88 1.244 2.357 2.357 0 0 1-.297.278C1.622 16.717 2.011 18 3 18h14a1 1 0 0 0 0-2H5.15c.076-.126.152-.258.228-.396z"/><path d="M19 8.001A7 7 0 0 0 8.115 2.168a1 1 0 1 0 1.11 1.664A5 5 0 0 1 17 7.999 1 1 0 0 0 19 8zM.293 1.707l22 22a1 1 0 0 0 1.414-1.414l-22-22A1 1 0 0 0 .293 1.707z"/></svg>