<svg viewBox="0 0 24 24" xmlns="http://www.w3.org/2000/svg"><path d="M17 8A5 5 0 0 0 7 8c0 3.225-.602 5.734-1.622 7.604-.076.138-.152.27-.228.396h13.7a10.21 10.21 0 0 1-.228-.396C17.602 13.734 17 11.225 17 8zm2 0c0 2.9.523 5.079 1.378 6.646.286.525.586.935.88 1.244.157.167.264.256.297.278.823.549.434 1.832-.555 1.832H3c-.99 0-1.378-1.283-.555-1.832.033-.022.14-.11.298-.278.293-.309.593-.719.88-1.244C4.476 13.08 5 10.9 5 8a7 7 0 1 1 14 0zm-6.135 12.498a1 1 0 0 1 1.73 1.004 3 3 0 0 1-5.19 0 1 1 0 0 1 1.73-1.004 1 1 0 0 0 1.73 0z"/></svg>