<svg viewBox="0 0 24 24" xmlns="http://www.w3.org/2000/svg"><path d="M20.025 1c.539 0 .975.507.975 1.132v19.685c0 .413-.193.793-.504.992a.86.86 0 0 1-.99-.033l-2.08-1.51-2.346 1.555a.86.86 0 0 1-1 0l-2.086-1.51-2.19 1.51a.86.86 0 0 1-1.001 0l-2.255-1.51-2.047 1.51a.86.86 0 0 1-.993.04c-.313-.197-.507-.577-.508-.99V2.13C3 1.508 3.436 1 3.975 1h16.05zM19 20.23L18.98 3H5v17.167l1.044-.786a.821.821 0 0 1 1.011 0L9.31 21l2.184-1.571a.821.821 0 0 1 1.012 0L14.586 21l2.346-1.595a.82.82 0 0 1 .999 0L19 20.23zM8 6h8a1 1 0 0 1 0 2H8a1 1 0 1 1 0-2zm0 4h8a1 1 0 0 1 0 2H8a1 1 0 0 1 0-2zm0 4h4a1 1 0 0 1 0 2H8a1 1 0 0 1 0-2z" fill-rule="evenodd"/></svg>