<svg viewBox="0 0 24 24" xmlns="http://www.w3.org/2000/svg"><path d="M21.686 6.666A3 3 0 0 1 22 8v8.001a3.002 3.002 0 0 1-1.504 2.597L13.5 22.596a3 3 0 0 1-1.025.364.996.996 0 0 1-.949 0 2.983 2.983 0 0 1-1.022-.362L3.5 18.596A3 3 0 0 1 2 16V7.999c0-.47.111-.925.314-1.332a1.003 1.003 0 0 1 .25-.416 3.01 3.01 0 0 1 .94-.85L10.5 1.405a2.998 2.998 0 0 1 2.996-.002L20.5 5.404c.375.217.692.508.937.848a1.001 1.001 0 0 1 .25.414zM13 20.578l6.5-3.714A1 1 0 0 0 20 16V8.538l-7 4.049v7.991zm-2 0v-7.991l-7-4.05V16c0 .357.19.687.496.863L11 20.578zM5.039 6.828L12 10.855l6.961-4.027L12.5 3.136a1.002 1.002 0 0 0-1.004.002L5.04 6.828z"/></svg>