<svg viewBox="0 0 24 24" xmlns="http://www.w3.org/2000/svg"><path d="M23.707 22.293a1 1 0 0 1-1.414 1.414L20.586 22H3a3 3 0 0 1-3-3V8a3 3 0 0 1 3-3h.586L.293 1.707A1 1 0 0 1 1.707.293l8.706 8.706.027.026 5.535 5.535.026.027 7.706 7.706zM10.985 17.92a5 5 0 0 1-2.723-8.245L5.586 7H3a1 1 0 0 0-1 1v11a1 1 0 0 0 1 1h15.586l-3.262-3.262a5 5 0 0 1-4.339 1.183zM9.68 11.094a3 3 0 0 0 4.226 4.226L9.68 11.094zM14.465 4H9a1 1 0 1 1 0-2h6a1 1 0 0 1 .832.445L17.535 5H21a3 3 0 0 1 3 3v9.34a1 1 0 0 1-2 0V8a1 1 0 0 0-1-1h-4a1 1 0 0 1-.832-.445L14.465 4z"/></svg>