<svg viewBox="0 0 24 24" xmlns="http://www.w3.org/2000/svg" xmlns:xlink="http://www.w3.org/1999/xlink"><defs><path d="M14.17 11H8.83a3.001 3.001 0 0 1-5.66 0H1a1 1 0 0 1-1-1V4.333a1 1 0 0 1 .2-.6L2.7.4a1 1 0 0 1 .8-.4h9a1 1 0 0 1 .8.4l2.155 2.873 4.766.53A2 2 0 0 1 22 5.79V10a1 1 0 0 1-1 1h-1.17a3.001 3.001 0 0 1-5.66 0zm0-2a3.001 3.001 0 0 1 5.66 0H20V5.79l-4.766-.53a2 2 0 0 1-1.38-.787L12 2H4L2 4.667V9h1.17a3.001 3.001 0 0 1 5.66 0h5.34zM6 11a1 1 0 1 0 0-2 1 1 0 0 0 0 2zm11 0a1 1 0 1 0 0-2 1 1 0 0 0 0 2z" id="a"/></defs><use xlink:href="#a" transform="translate(1 6)" fill-rule="evenodd"/></svg>