<svg viewBox="0 0 24 24" xmlns="http://www.w3.org/2000/svg"><path d="M22.11 7.66c.573 1.332.89 2.799.89 4.34 0 6.075-4.925 11-11 11a11.126 11.126 0 0 1-1.3-.076C5.239 22.281 1 17.636 1 12c0-2.413.777-4.645 2.095-6.459a.994.994 0 0 1 .109-.147A10.983 10.983 0 0 1 12 1a11.002 11.002 0 0 1 10.11 6.66zM10.355 20.85l2.241-3.885a5 5 0 0 1-5.028-2.65l-3.64-6.297A8.963 8.963 0 0 0 3 12c0 4.408 3.17 8.077 7.354 8.85zM5.158 6.152l2.244 3.881A5.001 5.001 0 0 1 12 7h7.484A8.991 8.991 0 0 0 12 3a8.98 8.98 0 0 0-6.842 3.152zM20.488 9H16c.628.836 1 1.874 1 3 0 .983-.284 1.9-.774 2.674l-3.638 6.307A9 9 0 0 0 20.488 9zM9.442 13.568a2.998 2.998 0 0 0 5.077.062l.075-.13a.757.757 0 0 1 .042-.067 3 3 0 1 0-5.31-.07l.08.137a.883.883 0 0 1 .036.068z"/></svg>