<svg viewBox="0 0 24 24" xmlns="http://www.w3.org/2000/svg"><path d="M5.82 4.309l14.587 14.669.03.03 3.266 3.285c.388.39.388 1.024 0 1.414a.99.99 0 0 1-1.406 0l-2.862-2.878a5.94 5.94 0 0 1-1.407.171H9.094c-4.107.066-7.732-2.688-8.791-6.68a9.03 9.03 0 0 1 3.23-9.483L.42 1.707a1.004 1.004 0 0 1 0-1.414.99.99 0 0 1 1.407 0l3.96 3.984a.99.99 0 0 1 .033.032zm-3.595 9.496A6.971 6.971 0 0 0 9.078 19h8.538L4.956 6.268a7.02 7.02 0 0 0-2.731 7.537zM18.027 9a5.957 5.957 0 0 1 4.979 2.683 6.03 6.03 0 0 1 .522 5.657.992.992 0 0 1-1.304.53 1.002 1.002 0 0 1-.528-1.31 4.02 4.02 0 0 0-.348-3.771A3.972 3.972 0 0 0 18.028 11h-1.253a.995.995 0 0 1-.964-.754 6.972 6.972 0 0 0-6.134-5.25.998.998 0 0 1-.903-1.084.996.996 0 0 1 1.078-.908A8.959 8.959 0 0 1 17.513 9h.514z"/></svg>