<svg viewBox="0 0 24 24" xmlns="http://www.w3.org/2000/svg"><path d="M3.788 8.53L7 10.78l4-2.8V3.842L3.788 8.53zm-2.314-.88l9.969-6.48a.995.995 0 0 1 1.114 0l9.969 6.48a.995.995 0 0 1 .474.862v6.976a.997.997 0 0 1-.474.863l-9.822 6.384c-.379.353-1.03.353-1.408 0l-9.822-6.384A.995.995 0 0 1 1 15.488V8.512a1.003 1.003 0 0 1 .474-.863zM3 10.42v3.16L5.256 12 3 10.42zm.788 5.05L11 20.156V16.02l-4-2.8-3.212 2.25zM13 20.156l7.212-4.688L17 13.221l-4 2.8v2.729c0 1.333-2 1.333-2 0s2-1.333 2 0v1.407zm8-6.578V10.42L18.744 12 21 13.58zm-.788-5.048L13 3.843v4.136l4 2.8 3.212-2.248zM15.256 12L12 9.72 8.744 12 12 14.28 15.256 12z"/></svg>