<svg viewBox="0 0 24 24" xmlns="http://www.w3.org/2000/svg"><path d="M21.686 6.666A3 3 0 0 1 22 8v8.001a3.002 3.002 0 0 1-1.504 2.597l-3.25 1.857a.999.999 0 0 1-.553.316L13.5 22.596a3 3 0 0 1-1.025.364.996.996 0 0 1-.949 0 2.983 2.983 0 0 1-1.022-.362l-3.197-1.827a.999.999 0 0 1-.554-.316L3.5 18.596A3 3 0 0 1 2 16V8c0-.47.111-.925.314-1.332a1.003 1.003 0 0 1 .25-.416 3.01 3.01 0 0 1 .94-.85l3.249-1.856a1 1 0 0 1 .553-.316L10.5 1.404a2.998 2.998 0 0 1 2.996-.002l3.198 1.827a1 1 0 0 1 .553.316L20.5 5.404c.375.217.692.508.937.848a1.001 1.001 0 0 1 .25.414zM17.5 18.006l2-1.142A1 1 0 0 0 20 16v-2.267l-2.5 1.444v2.83zm-2 1.144V14.6a1 1 0 0 1 .5-.866l4-2.311V8.538l-7 4.049v7.991l2.5-1.428zM11 20.578v-7.991l-7-4.05v2.886l4 2.311a1 1 0 0 1 .5.866v4.55l2.5 1.428zm-4.5-2.571v-2.83L4 13.733v2.266c0 .357.19.687.496.863L6.5 18.007zM5.039 6.828L12 10.855l6.961-4.027-2.51-1.435-3.95 2.283a1 1 0 0 1-1.001 0L7.55 5.393 5.038 6.828zm4.52-2.583L12 5.655l2.44-1.41-1.94-1.109a1.002 1.002 0 0 0-1.004.002L9.56 4.245z"/></svg>