<svg viewBox="0 0 24 24" xmlns="http://www.w3.org/2000/svg"><path d="M13 3.5h2-2zm2 0c0 1.333-2 1.333-2 0V2c0-1.333 2-1.333 2 0v3c0 1.333-2 1.333-2 0V3.5c0-1.333 2-1.333 2 0zm-6 0h2-2zm2 0c0 1.333-2 1.333-2 0V2c0-1.333 2-1.333 2 0v3c0 1.333-2 1.333-2 0V3.5c0-1.333 2-1.333 2 0zm-6 0h2-2zm2 0c0 1.333-2 1.333-2 0V2C5 .667 7 .667 7 2v3c0 1.333-2 1.333-2 0V3.5c0-1.333 2-1.333 2 0zM19 8a5 5 0 0 1 0 10 5 5 0 0 1-5 5H6a5 5 0 0 1-5-5V9a1 1 0 0 1 1-1h17zm-2 9v-7H3v8a3 3 0 0 0 3 3h8a3 3 0 0 0 3-3v-1zm2-1a3 3 0 0 0 0-6v6z"/></svg>