<svg viewBox="0 0 24 24" xmlns="http://www.w3.org/2000/svg"><path d="M12 23C5.925 23 1 18.075 1 12S5.925 1 12 1s11 4.925 11 11-4.925 11-11 11zm0-2a9 9 0 1 0 0-18 9 9 0 0 0 0 18zm2.121-11.121l1.415-1.415A1 1 0 1 1 14.12 9.88zm1.415 5.657L14.12 14.12a1 1 0 0 1 1.415 1.415zM12 15v2a5 5 0 0 1-5-5h2a3 3 0 0 0 3 3zm-3-3H7a5 5 0 0 1 5-5v2a3 3 0 0 0-3 3zm3-3V7c1.38 0 2.632.56 3.536 1.464L14.12 9.88A2.987 2.987 0 0 0 12 9zm2.121 5.121l1.415 1.415A4.987 4.987 0 0 1 12 17v-2c.829 0 1.577-.335 2.121-.879z"/></svg>