<svg viewBox="0 0 24 24" xmlns="http://www.w3.org/2000/svg"><path d="M8 3v-.5c0-1.333 2-1.333 2 0 0 .195-.043.362-.116.5H8.116A1.055 1.055 0 0 1 8 2.5V1c0-1.333 2-1.333 2 0v2h4v-.5c0-1.333 2-1.333 2 0 0 .195-.043.362-.116.5h-1.768A1.055 1.055 0 0 1 14 2.5V1c0-1.333 2-1.333 2 0v2h2a3 3 0 0 1 3 3v2h2c1.333 0 1.333 2 0 2h-1.5c-.195 0-.362-.043-.5-.116V8.116c.138-.073.305-.116.5-.116 1.333 0 1.333 2 0 2H21v3h2c1.333 0 1.333 2 0 2h-1.5c-.195 0-.362-.043-.5-.116v-1.768c.138-.073.305-.116.5-.116 1.333 0 1.333 2 0 2H21v3a3 3 0 0 1-3 3h-2v2c0 1.333-2 1.333-2 0v-1.5c0-.195.043-.362.116-.5h1.768c.073.138.116.305.116.5 0 1.333-2 1.333-2 0V21h-4v2c0 1.333-2 1.333-2 0v-1.5c0-.195.043-.362.116-.5h1.768c.073.138.116.305.116.5 0 1.333-2 1.333-2 0V21H6a3 3 0 0 1-3-3v-3h-.5c-1.333 0-1.333-2 0-2 .195 0 .362.043.5.116v1.768a1.055 1.055 0 0 1-.5.116H1c-1.333 0-1.333-2 0-2h2v-3h-.5c-1.333 0-1.333-2 0-2 .195 0 .362.043.5.116v1.768a1.055 1.055 0 0 1-.5.116H1C-.333 10-.333 8 1 8h2V6a3 3 0 0 1 3-3h2zM6 5a1 1 0 0 0-1 1v12a1 1 0 0 0 1 1h12a1 1 0 0 0 1-1V6a1 1 0 0 0-1-1H6zM2.5 15v-2 2zm0-5V8v2zm19 5v-2 2zm0-5V8v2zM14 21.5h2-2zm-6 0h2-2zm6-19h2-2zm-6 0h2-2zM8 9a1 1 0 0 1 1-1h6a1 1 0 0 1 1 1v6a1 1 0 0 1-1 1H9a1 1 0 0 1-1-1V9zm2 1v4h4v-4h-4z"/></svg>