<svg viewBox="0 0 24 24" xmlns="http://www.w3.org/2000/svg"><path d="M12 12l-.707.707L12 12l.707-.707L12 12zm0-1.414l2.293-2.293c.943-.943 2.357.471 1.414 1.414L13.414 12l2.293 2.293c.943.943-.471 2.357-1.414 1.414L12 13.414l-2.293 2.293c-.943.943-2.357-.471-1.414-1.414L10.586 12 8.293 9.707c-.943-.943.471-2.357 1.414-1.414L12 10.586zM7.153 1.293A1 1 0 0 1 7.86 1h8.28a1 1 0 0 1 .707.293l5.86 5.86A1 1 0 0 1 23 7.86v8.28a1 1 0 0 1-.293.707l-5.86 5.86a1 1 0 0 1-.707.293H7.86a1 1 0 0 1-.707-.293l-5.86-5.86A1 1 0 0 1 1 16.14V7.86a1 1 0 0 1 .293-.707l5.86-5.86zM8.274 3L3 8.274v7.452L8.274 21h7.452L21 15.726V8.274L15.726 3H8.274z"/></svg>