<svg viewBox="0 0 24 24" xmlns="http://www.w3.org/2000/svg"><path d="M15 12l-.707.707L15 12l.707.707L15 12zm0 0l.707-.707L15 12l-.707-.707L15 12zm0-1.018a.98.98 0 0 0-.707.31c-.222.223-.313.47-.311.708.005-.519.458-.986.974-1.016.604.03 1.057.497 1.062 1.016a.98.98 0 0 0-.31-.707c-.223-.222-.47-.313-.708-.311zm0 2.432l-2.293 2.293c-.943.943-2.357-.471-1.414-1.414L13.586 12l-2.293-2.293c-.943-.943.471-2.357 1.414-1.414L15 10.586l2.293-2.293c.943-.943 2.357.471 1.414 1.414L16.414 12l2.293 2.293c.943.943-.471 2.357-1.414 1.414L15 13.414zm0-.396zM21 3a3 3 0 0 1 3 3v12a3 3 0 0 1-3 3H8a1 1 0 0 1-.753-.341l-7-8a1 1 0 0 1 0-1.318l7-8A1 1 0 0 1 8 3h13zM8.454 19H21a1 1 0 0 0 1-1V6a1 1 0 0 0-1-1H8.454l-6.125 7 6.125 7z"/></svg>