<svg viewBox="0 0 24 24" xmlns="http://www.w3.org/2000/svg"><path d="M6 17V7.6h2v12.8H6V19H5v-2h1zM18 5h1v2H8.75V5H16V4h2v1zM8.75 6V5v1zM7 7.6H6h1zm0 12.8H6h1zM8.75 5v2a.838.838 0 0 0-.563.207L6.837 5.73A2.836 2.836 0 0 1 8.75 5zm-1.912.73l1.35 1.477A.535.535 0 0 0 8 7.6H6c0-.72.314-1.39.838-1.87zM6 20.4h2c0 .129.055.273.187.393l-1.35 1.476A2.533 2.533 0 0 1 6 20.4zm.838 1.87l1.35-1.477c.155.136.356.21.562.207v2a2.836 2.836 0 0 1-1.912-.73zM8.75 23v-2h10.5v2H8.75zm10.5 0v-2a.838.838 0 0 0 .563-.207l1.35 1.476A2.838 2.838 0 0 1 19.25 23zm1.912-.73l-1.35-1.477A.535.535 0 0 0 20 20.4h2c0 .72-.314 1.39-.838 1.87zM22 20.4h-2V8h2v12.4zM22 8h-2a1 1 0 0 0-1-1V5a3 3 0 0 1 3 3zM4 16H2V4h2v12zM5 3V1h10v2H5zm10 0V1a3 3 0 0 1 3 3h-2a1 1 0 0 0-1-1zM4 4H2a3 3 0 0 1 3-3v2a1 1 0 0 0-1 1zM2 16h2a1 1 0 0 0 1 1v2a3 3 0 0 1-3-3zm15-3a1 1 0 0 1 0 2h-6a1 1 0 0 1 0-2h6zm0 4a1 1 0 0 1 0 2h-6a1 1 0 0 1 0-2h6zm-4-8a1 1 0 0 1 0 2h-2a1 1 0 1 1 0-2h2z"/></svg>