<svg viewBox="0 0 24 24" xmlns="http://www.w3.org/2000/svg" xmlns:xlink="http://www.w3.org/1999/xlink"><defs><path d="M8.929 5L6.515 7.414A2 2 0 0 1 5.1 8H5v4h.1a2 2 0 0 1 1.415.586L8.929 15h4.142l2.414-2.414A2 2 0 0 1 16.9 12h.1V5H8.929zM11 2H9a1 1 0 1 1 0-2h6a1 1 0 0 1 0 2h-2v1h5a1 1 0 0 1 1 1v4h1V6a1 1 0 0 1 2 0v6a1 1 0 0 1-2 0v-2h-1v3a1 1 0 0 1-1 1h-1.1l-2.708 2.707a1 1 0 0 1-.707.293h-4.97a1 1 0 0 1-.707-.293L5.1 14H4a1 1 0 0 1-1-1v-2H2v2a1 1 0 0 1-2 0V7a1 1 0 0 1 2 0v2h1V7a1 1 0 0 1 1-1h1.1l2.708-2.707A1 1 0 0 1 8.515 3H11V2zm2.475 7.345c-.044-.109-.112-.163-.202-.163h-1.776L11.7 7.3c.022-.11-.045-.245-.135-.273-.09-.054-.203-.027-.27.082l-2.248 3.273a.345.345 0 0 0-.022.3c.044.082.112.136.202.136h1.776L10.8 12.7c-.022.11.045.245.135.273.023.027.068.027.09.027a.195.195 0 0 0 .18-.11l2.248-3.272c.045-.082.067-.19.022-.273z" id="a"/></defs><use xlink:href="#a" transform="translate(1 4)" fill-rule="evenodd"/></svg>