<svg viewBox="0 0 24 24" xmlns="http://www.w3.org/2000/svg"><path d="M15.207 3.293a1 1 0 1 0-1.414 1.414l1.414-1.414zM18.5 8l.707.707a1 1 0 0 0 0-1.414L18.5 8zm-4.707 3.293a1 1 0 0 0 1.414 1.414l-1.414-1.414zm0-6.586l4 4 1.414-1.414-4-4-1.414 1.414zm4 2.586l-4 4 1.414 1.414 4-4-1.414-1.414zm-9.5 13.414a1 1 0 0 0 1.414-1.414l-1.414 1.414zM5 16l-.707-.707a1 1 0 0 0 0 1.414L5 16zm4.707-3.293a1 1 0 0 0-1.414-1.414l1.414 1.414zm0 6.586l-4-4-1.414 1.414 4 4 1.414-1.414zm-4-2.586l4-4-1.414-1.414-4 4 1.414 1.414z"/><path d="M3 9a1 1 0 1 1 0-2h15a1 1 0 0 1 0 2H3zm3 8a1 1 0 0 1 0-2h15a1 1 0 0 1 0 2H6z"/></svg>