<svg viewBox="0 0 24 24" xmlns="http://www.w3.org/2000/svg"><path d="M8.172 15.414a.903.903 0 0 1 .253-.254l6.868-6.867c.943-.943 2.357.471 1.414 1.414L11.414 15h1.836c1.333 0 1.333 2 0 2s-1.333-2 0-2h3.823l2.46-2.467a5.003 5.003 0 1 0-7.076-7.076L6 11.914v5.672l2.172-2.172zM9.414 17l-2 2h5.67l1.995-2H9.414zm8.63-.14l-3.836 3.846A1 1 0 0 1 13.5 21H5.414l-2.707 2.707c-.943.943-2.357-.471-1.414-1.414L4 19.586V11.5a1 1 0 0 1 .293-.707l6.75-6.75a7.003 7.003 0 0 1 9.904 9.904h.001l-2.598 2.605a.904.904 0 0 1-.306.307zM9.172 15H9c-.145 0-.274.024-.387.066A.9.9 0 0 1 9.172 15zm4.078 0v2-2z"/></svg>