<svg viewBox="0 0 24 24" xmlns="http://www.w3.org/2000/svg"><path d="M5 15.536c-.178.085-.271.15-.293.171C4.077 16.337 3 15.891 3 15V3a1 1 0 0 1 .293-.707c.22-.22.614-.483 1.21-.721C5.407 1.21 6.564 1 8 1c1.417 0 2.383.276 4.371 1.072C14.133 2.776 14.917 3 16 3c1.189 0 2.094-.165 2.754-.428.341-.137.508-.249.539-.28C19.923 1.663 21 2.11 21 3v12a1 1 0 0 1-.293.707c-.22.22-.614.483-1.21.721-.903.362-2.06.572-3.497.572-1.417 0-2.383-.276-4.371-1.072C9.867 15.224 9.083 15 8 15c-1.189 0-2.094.165-2.754.428a4.094 4.094 0 0 0-.246.108V18.5c0 1.333-2 1.333-2 0s2-1.333 2 0V22c0 1.333-2 1.333-2 0v-7c0-1.333 2-1.333 2 0v.536zM5 18.5H3h2zM5 3.536v9.86C5.82 13.143 6.814 13 8 13c1.417 0 2.383.276 4.371 1.072 1.762.704 2.546.928 3.629.928 1.189 0 2.094-.165 2.754-.428.095-.039.177-.075.246-.108v-9.86c-.82.253-1.814.396-3 .396-1.417 0-2.383-.276-4.371-1.072C9.867 3.224 9.083 3 8 3c-1.189 0-2.094.165-2.754.428A4.094 4.094 0 0 0 5 3.536z"/></svg>