<svg viewBox="0 0 24 24" xmlns="http://www.w3.org/2000/svg"><path d="M8.183 11.556c-.398 0-.75.23-.89.57L4.45 19h13.786c.398 0 .75-.23.89-.57l2.844-6.874H8.183zm-2.738-.195c.453-1.095 1.538-1.805 2.738-1.805h11.352V7.722a.858.858 0 0 0-.267-.617.988.988 0 0 0-.687-.272h-8.79a1 1 0 0 1-.824-.432L7.312 4H2.953c-.26 0-.507.1-.686.272A.858.858 0 0 0 2 4.89v13.22a.858.858 0 0 0 .364.698l3.081-7.448zM2.925 21a2.987 2.987 0 0 1-2.048-.834A2.858 2.858 0 0 1 0 18.11V4.89c0-.773.317-1.513.877-2.055A2.988 2.988 0 0 1 2.953 2h4.884a1 1 0 0 1 .823.432l1.656 2.401h8.265c.777 0 1.523.3 2.077.835.56.541.877 1.28.877 2.054v1.834h.487c1.393 0 2.365 1.388 1.831 2.677l-2.88 6.962C20.521 20.289 19.435 21 18.235 21H2.925z"/></svg>