<svg viewBox="0 0 24 24" xmlns="http://www.w3.org/2000/svg"><path d="M12 23C5.925 23 1 18.075 1 12S5.925 1 12 1s11 4.925 11 11-4.925 11-11 11zm0-2a9 9 0 1 0 0-18 9 9 0 0 0 0 18zm4.8-5.6a1 1 0 0 1-1.6 1.2c-.132-.176-.425-.481-.85-.791-.7-.51-1.487-.809-2.35-.809s-1.65.3-2.35.809c-.425.31-.718.615-.85.791a1 1 0 0 1-1.6-1.2c.243-.324.669-.769 1.274-1.209C9.494 13.451 10.675 13 12 13c1.325 0 2.507.45 3.526 1.191.605.44 1.031.885 1.274 1.209zM8 9a1 1 0 1 1 0-2 1 1 0 0 1 0 2zm8 0a1 1 0 1 1 0-2 1 1 0 0 1 0 2z"/></svg>