<svg viewBox="0 0 24 24" xmlns="http://www.w3.org/2000/svg"><path d="M20.317 2.119c0 2.257-.475 3.445-1.188 4.277-.713.832-1.664 1.188-2.733 1.545-1.07.237-2.257.356-3.208.712-.475.12-.95.357-1.426.713a2.831 2.831 0 0 0-.712 1.307h1.425c.12-.119.12-.237.238-.356.237-.119.475-.357.832-.475.831-.238 1.9-.357 3.089-.713 1.188-.357 2.495-.832 3.445-1.901.95-1.07 1.545-2.733 1.545-5.228l-1.307.119zM5.94 11.267c-3.207 0-5.94 2.614-5.94 5.94 0 3.209 2.614 5.942 5.94 5.942 1.783 0 3.446-.832 4.515-2.02h3.09c1.069 1.307 2.732 2.02 4.514 2.02 3.208 0 5.941-2.614 5.941-5.941 0-3.208-2.614-5.94-5.94-5.94H5.94zm0 1.426h12a4.513 4.513 0 0 1 4.514 4.515 4.513 4.513 0 0 1-4.514 4.515c-1.545 0-2.97-.832-3.802-2.02H9.743c-.832 1.188-2.139 2.02-3.802 2.02a4.513 4.513 0 0 1-4.515-4.515 4.513 4.513 0 0 1 4.515-4.515zm0 1.545c-.476 0-.95.356-.95.95v.95h-.95c-.476 0-.95.357-.95.951 0 .475.356.95.95.95h.95v.951c0 .475.357.95.95.95.476 0 .951-.356.951-.95v-.95h.95c.476 0 .951-.357.951-.95 0-.476-.356-.951-.95-.951h-.95v-.95c0-.595-.357-.951-.951-.951zm12 0c-.238 0-.476.118-.713.237a.932.932 0 0 0 0 1.307.932.932 0 0 0 1.307 0 .932.932 0 0 0 0-1.307.908.908 0 0 0-.594-.237zm-1.783 1.9c-.237 0-.475.12-.712.238a.932.932 0 0 0 0 1.307.932.932 0 0 0 1.306 0 .932.932 0 0 0 0-1.307c-.118-.237-.356-.237-.594-.237zm3.684 0c-.238 0-.476.12-.713.238a.932.932 0 0 0 0 1.307.932.932 0 0 0 1.307 0 .932.932 0 0 0 0-1.307c-.12-.237-.357-.237-.594-.237zm-1.901 1.783c-.238 0-.476.119-.713.237a.932.932 0 0 0 0 1.307.932.932 0 0 0 1.307 0 .932.932 0 0 0 0-1.307.908.908 0 0 0-.594-.237z"/></svg>