<svg viewBox="0 0 24 24" xmlns="http://www.w3.org/2000/svg"><path d="M11.375 18.8h1.2c.6 0 1 .4 1 1s-.4 1-1 1h-1.2v1c0 .6-.4 1-1 1s-1-.4-1-1v-1h-1.2c-.6 0-1-.4-1-1s.4-1 1-1h1.2v-1.279a6.692 6.692 0 0 1-3.5-1.721c-2.5-2.5-2.5-6.5 0-8.9 2.24-2.15 5.682-2.454 8.1-.698L16.233 4h-1.158c-.6 0-1-.4-1-1s.4-1 1-1h3.6c.6 0 1 .4 1 1v3.5c0 .6-.4 1-1 1s-1-.4-1-1V5.359L15.38 7.597c1.875 2.499 1.674 6.016-.605 8.203a6.154 6.154 0 0 1-3.4 1.721V18.8zm-1-11.8c-1.1 0-2.2.4-3 1.3-1.7 1.7-1.7 4.4 0 6.1 1.7 1.7 4.4 1.7 6.1 0 1.7-1.7 1.7-4.4 0-6.1-.9-.9-2-1.3-3.1-1.3z"/></svg>