<svg viewBox="0 0 24 24" xmlns="http://www.w3.org/2000/svg"><path d="M19 6.4l-2.746 2.746c.992 1.293 1.546 2.873 1.546 4.454 0 1.9-.8 3.8-2.2 5.2-1.4 1.4-3.2 2.2-5.2 2.2s-3.8-.8-5.2-2.2C3.7 17.4 3 15.6 3 13.6s.8-3.8 2.2-5.2C6.5 7 8.4 6.2 10.4 6.2a7.17 7.17 0 0 1 4.457 1.543L17.6 5h-1.9c-.6 0-1-.4-1-1s.4-1 1-1H20c.6 0 1 .4 1 1v4.3c0 .6-.4 1-1 1s-1-.4-1-1V6.4zm-8.6 1.8c-1.4 0-2.8.6-3.8 1.6S5 12.1 5 13.6s.6 2.8 1.6 3.8S9 19 10.4 19s2.8-.6 3.8-1.6 1.6-2.4 1.6-3.8-.6-2.8-1.6-3.8-2.4-1.6-3.8-1.6z"/></svg>