<svg viewBox="0 0 24 24" xmlns="http://www.w3.org/2000/svg"><path d="M10 20.023V23a1 1 0 0 1-2 0l.001-1.738c-2.217.362-3.625-.362-4.941-1.992-.082-.1-.38-.48-.45-.565-.39-.483-.622-.677-.853-.735a1 1 0 1 1 .486-1.94c.765.191 1.28.622 1.922 1.417.08.099.38.478.45.567.95 1.175 1.738 1.58 3.387 1.215V19.2a4.37 4.37 0 0 1 .299-1.92C4.56 16.42 2.5 14.167 2.5 9.555A6.44 6.44 0 0 1 3.879 5.54a6.07 6.07 0 0 1 .292-3.933 1 1 0 0 1 .635-.565c.057-.017.127-.032.21-.044.939-.136 2.317.235 4.163 1.406a14.38 14.38 0 0 1 6.642 0C17.667 1.232 19.045.86 19.985.997c.082.012.152.027.21.044a1 1 0 0 1 .634.565 6.07 6.07 0 0 1 .292 3.933A6.44 6.44 0 0 1 22.5 9.52c0 4.642-2.07 6.918-5.79 7.743.238.6.34 1.242.29 1.867V23a1 1 0 0 1-2 0l.003-3.948a2.37 2.37 0 0 0-.661-1.836 1 1 0 0 1 .607-1.69c3.77-.42 5.551-1.918 5.551-6.006a4.44 4.44 0 0 0-1.224-3.06 1 1 0 0 1-.213-1.04 4.07 4.07 0 0 0 .14-2.392c-.07.015-.147.035-.231.06-.645.185-1.448.574-2.415 1.223a1 1 0 0 1-.819.134 12.38 12.38 0 0 0-6.476 0 1 1 0 0 1-.819-.134c-.967-.649-1.77-1.038-2.415-1.224a4.124 4.124 0 0 0-.23-.06 4.07 4.07 0 0 0 .139 2.393 1 1 0 0 1-.213 1.04A4.444 4.444 0 0 0 4.5 9.55c0 4.05 1.769 5.536 5.563 6.008a1 1 0 0 1 .596 1.687c-.468.484-.709 1.144-.659 1.885v.893z"/></svg>