<svg viewBox="0 0 24 24" xmlns="http://www.w3.org/2000/svg"><path d="M12.588 22.939a1 1 0 0 1-1.176 0L.758 15.196a1.838 1.838 0 0 1-.66-2.053l1.22-3.782 2.46-7.562c.08-.207.207-.392.368-.537a1.436 1.436 0 0 1 1.949.019 1.4 1.4 0 0 1 .366.59L8.676 8.67h6.648l2.233-6.87c.08-.208.208-.393.369-.538a1.436 1.436 0 0 1 1.949.019 1.4 1.4 0 0 1 .366.59l2.436 7.499 1.283 3.8a1.84 1.84 0 0 1-.74 2.042l-10.632 7.727zm8.19-12.94l-1.891-5.824L17 9.979a1 1 0 0 1-.951.691h-8.1A1 1 0 0 1 7 9.98L5.107 4.173 3.222 9.977l-1.186 3.675L12 20.894l10.003-7.27-1.224-3.625z"/></svg>