<svg viewBox="0 0 24 24" xmlns="http://www.w3.org/2000/svg"><path d="M9.726 20.71A16.331 16.331 0 0 1 7.053 13H3.055a9.008 9.008 0 0 0 6.671 7.71zm4.548 0A9.008 9.008 0 0 0 20.945 13H16.95a16.3 16.3 0 0 1-2.676 7.71zm.671-7.71H12c-1.333 0-1.333-2 0-2s1.333 2 0 2H9.058A14.3 14.3 0 0 0 12 20.45 14.288 14.288 0 0 0 14.945 13zm-5.22-9.71A9.008 9.008 0 0 0 3.056 11H7.05a16.3 16.3 0 0 1 2.676-7.71zm4.549 0A16.331 16.331 0 0 1 16.947 11h3.998a9.008 9.008 0 0 0-6.671-7.71zm.668 7.71A14.3 14.3 0 0 0 12 3.55 14.288 14.288 0 0 0 9.055 11h5.887zM12 23C5.925 23 1 18.075 1 12S5.925 1 12 1s11 4.925 11 11-4.925 11-11 11zm0-10v-2 2z"/></svg>