<svg viewBox="0 0 24 24" xmlns="http://www.w3.org/2000/svg" xmlns:xlink="http://www.w3.org/1999/xlink"><defs><path d="M16.627 9.998l-3.313 3.314a4 4 0 0 1-4.073.974 1.5 1.5 0 0 1-1.938-.156L3.061 9.887a1.5 1.5 0 0 1-.363-1.534l-.355-.355H1a1 1 0 0 1-1-1V1.013a1 1 0 0 1 1.014-1l8.71.123a1.997 1.997 0 0 1 1.494.702l.27-.272c.033-.032.067-.063.103-.09a1 1 0 0 1 .841-.462L20.998 0A1 1 0 0 1 22 .998v8a1 1 0 0 1-1 1h-4.373zm-1.96-.867l-1.58-2.42-.08-.083-.977.679a3.001 3.001 0 0 1-3.39-.598L7.004 5.073l2.703-2.717-.011-.22L2 2.026v3.972h.757a1 1 0 0 1 .707.293l.562.561a1.5 1.5 0 0 1 1.863.207l4.243 4.243c.323.323.468.757.434 1.18.485-.02.964-.214 1.333-.584l2.767-2.767zM9.828 5.07l.225.225a1 1 0 0 0 1.363.047l1.06-.921a1 1 0 0 1 1.474.179l2.392 3.398H20V2.002l-7.127.012L9.829 5.07zm-5 3.05l-.708.707 4.243 4.242.707-.707L4.828 8.12z" id="a"/></defs><use xlink:href="#a" transform="translate(1 5)" fill-rule="evenodd"/></svg>