<svg viewBox="0 0 24 24" xmlns="http://www.w3.org/2000/svg" xmlns:xlink="http://www.w3.org/1999/xlink"><defs><path d="M21.603 3.843L11.557 2.016a1 1 0 0 0-.607.08L3.248 5.745a.432.432 0 0 0-.217.55.39.39 0 0 0 .495.222l3.837-1.395a2.492 2.492 0 0 1 1.74-.705h4.5v2h-4.5a.5.5 0 1 0 0 1h2.68a2 2 0 0 1 1.162.373l2.913 2.08 5.745-.82V3.843zm-.028-2.038a2 2 0 0 1 2.028 2V9.05a2 2 0 0 1-1.717 1.98l-5.745.82a2 2 0 0 1-1.445-.352l-2.914-2.08h-2.68a2.501 2.501 0 0 1-2.43-1.916l-2.462.895a2.39 2.39 0 0 1-3.036-1.358 2.432 2.432 0 0 1 1.218-3.102L10.094.29a3 3 0 0 1 1.82-.24l9.661 1.756zM2 20.028l10.046 1.826a1 1 0 0 0 .607-.08l7.702-3.648a.432.432 0 0 0 .217-.551.39.39 0 0 0-.495-.222l-3.837 1.395a2.492 2.492 0 0 1-1.74.705H10v-2h4.5a.5.5 0 0 0 0-1h-2.68a2 2 0 0 1-1.162-.372L7.745 14 2 14.82v5.208zm.028 2.038a2 2 0 0 1-2.028-2v-5.245a2 2 0 0 1 1.717-1.98l5.745-.82a2 2 0 0 1 1.445.352l2.913 2.08h2.68a2.5 2.5 0 0 1 2.431 1.916l2.462-.895a2.39 2.39 0 0 1 3.035 1.358 2.432 2.432 0 0 1-1.217 3.101l-7.702 3.649a3 3 0 0 1-1.82.24l-9.661-1.756z" id="a"/></defs><use xlink:href="#a" fill-rule="evenodd"/></svg>