<svg viewBox="0 0 24 24" xmlns="http://www.w3.org/2000/svg"><path d="M16.5 9.086l1.5-1.5V3a1 1 0 0 0-1-1H3a1 1 0 0 0-1 1v14a1 1 0 0 0 .65.937L13.292 7.293a1 1 0 0 1 1.414 0L16.5 9.086zM15.086 10.5L14 9.414 5.414 18h2.172l7.5-7.5zm-9.5 9.5H3a3 3 0 0 1-3-3V3a3 3 0 0 1 3-3h14a3 3 0 0 1 3 3v2.586l2.293-2.293a1 1 0 0 1 1.414 1.414l-19 19a1 1 0 1 1-1.414-1.414L5.586 20zM17 20h-4c-.89 0-1.337-1.077-.707-1.707l6-6c.63-.63 1.707-.184 1.707.707v4a3 3 0 0 1-3 3zm1-4.586L15.414 18H17a1 1 0 0 0 1-1v-1.586zM6.5 9a2.5 2.5 0 1 1 0-5 2.5 2.5 0 0 1 0 5zm0-2a.5.5 0 1 0 0-1 .5.5 0 0 0 0 1z"/></svg>