<svg viewBox="0 0 24 24" xmlns="http://www.w3.org/2000/svg"><path d="M20.38 11l-2.726-5.445A1 1 0 0 0 16.76 5H7.24a1 1 0 0 0-.894.555l-.002.003L3.62 11H8a1 1 0 0 1 .832.445L10.535 14h2.93l1.703-2.555A1 1 0 0 1 16 11h4.38zm2.505.534c.073.14.115.298.115.466v6a3 3 0 0 1-3 3H4a3 3 0 0 1-3-3v-6c0-.168.042-.327.115-.466l3.44-6.87A3 3 0 0 1 7.24 3h9.52c1.139 0 2.179.646 2.684 1.662l3.441 6.872zM21 13h-4.465l-1.703 2.555A1 1 0 0 1 14 16h-4a1 1 0 0 1-.832-.445L7.465 13H3v5a1 1 0 0 0 1 1h16a1 1 0 0 0 1-1v-5z"/></svg>