<svg viewBox="0 0 24 24" xmlns="http://www.w3.org/2000/svg"><path d="M18.293 3.293l1-1c.943-.943 2.357.471 1.414 1.414-.11.11-.228.189-.347.24l-.653-.654A.997.997 0 0 0 18.982 3a.98.98 0 0 1 .31-.707l1-1c.944-.943 2.358.471 1.415 1.414l-1 1-.293.293 2.293 2.293a1 1 0 0 1 0 1.414l-3.5 3.5a1 1 0 0 1-1.414 0L15.5 8.914l-1.543 1.543c-.943.943-2.357-.471-1.414-1.414.943-.943 2.357.471 1.414 1.414l-1.203 1.204a6.5 6.5 0 0 1-9.861 8.422 6.5 6.5 0 0 1 8.431-9.822l1.219-1.218 1.75-1.75c.097-.097.198-.169.302-.219a.998.998 0 0 1 .198-.281l3.5-3.5zm-7.599 9.037a4.5 4.5 0 0 0-6.308.055 4.498 4.498 0 0 0-.062 6.3 4.5 4.5 0 1 0 6.37-6.355zM19 5.414L16.914 7.5 18.5 9.086 20.586 7 19 5.414zm.293-3.121l1.414 1.414-1.414-1.414z"/></svg>