<svg viewBox="0 0 24 24" xmlns="http://www.w3.org/2000/svg"><path d="M10.42 8.5H7.58c.077.262.199.518.32.7.154.193.577.624 1.083 1.127.525-.503.963-.934 1.117-1.127.121-.182.243-.438.32-.7zm1.034 0c-.08.433-.265.867-.554 1.3-.176.246-.636.727-1.172 1.26.614.6 1.225 1.193 1.572 1.54.2.2.2.5 0 .7 0 .1-.2.2-.3.2-.1 0-.2 0-.3-.1-.15-.15-.9-.875-1.675-1.65-.8.775-1.575 1.5-1.725 1.65-.1.1-.2.1-.3.1-.1 0-.3-.1-.4-.2-.2-.2-.2-.5 0-.7.36-.36 1.023-.983 1.68-1.604-.492-.508-.911-.96-1.08-1.196a2.298 2.298 0 0 1-.662-1.3H6.2c-.2 0-.4-.2-.4-.5s.2-.5.4-.5h2.3V7c0-.3.2-.5.5-.5s.5.2.5.5v.5h2.2c.3 0 .5.2.5.5s-.2.5-.4.5h-.346zm5.454 3.1h-1.793l-.615 1.6c-.1.3-.4.4-.6.3-.3-.1-.4-.4-.3-.6l2-5c.2-.4.8-.4.9 0l2 5c.1.3 0 .5-.3.6 0-.1-.1-.1-.2-.1-.2 0-.4-.1-.5-.3l-.592-1.5zm-.395-1L16 9.3l-.5 1.3h1.013zM3 22c-.1 0-.3 0-.4-.1-.4-.1-.6-.5-.6-.9V5c0-1.7 1.3-3 3-3h14c1.7 0 3 1.3 3 3v10c0 1.7-1.3 3-3 3H7.4l-3.7 3.7c-.2.2-.4.3-.7.3zM5 4c-.6 0-1 .4-1 1v13.6l2.3-2.3c.2-.2.4-.3.7-.3h12c.6 0 1-.4 1-1V5c0-.6-.4-1-1-1H5z"/></svg>