<svg viewBox="0 0 24 24" xmlns="http://www.w3.org/2000/svg"><path d="M6.382 19.032A8.962 8.962 0 0 0 12 21a8.962 8.962 0 0 0 5.618-1.968l-2.86-2.86A4.977 4.977 0 0 1 12 17a4.977 4.977 0 0 1-2.757-.828l-2.86 2.86zm-1.414-1.414l2.86-2.86A4.977 4.977 0 0 1 7 12c0-1.02.305-1.967.828-2.757l-2.86-2.86A8.962 8.962 0 0 0 3 12c0 2.125.736 4.078 1.968 5.618zm1.414-12.65l2.86 2.86A4.977 4.977 0 0 1 12 7c1.02 0 1.967.305 2.757.828l2.86-2.86A8.962 8.962 0 0 0 12 3a8.962 8.962 0 0 0-5.618 1.968zm12.65 1.414l-2.86 2.86c.523.791.828 1.739.828 2.758 0 1.02-.305 1.967-.828 2.757l2.86 2.86A8.962 8.962 0 0 0 21 12a8.962 8.962 0 0 0-1.968-5.618zM12 23C5.925 23 1 18.075 1 12S5.925 1 12 1s11 4.925 11 11-4.925 11-11 11zm0-8a3 3 0 1 0 0-6 3 3 0 0 0 0 6z"/></svg>