<svg viewBox="0 0 24 24" xmlns="http://www.w3.org/2000/svg"><path d="M11 2a1 1 0 1 1 2 0v4a1 1 0 0 1-2 0V2zm0 16a1 1 0 0 1 2 0v4a1 1 0 0 1-2 0v-4zM4.223 5.637a1 1 0 0 1 1.414-1.414l2.83 2.83a1 1 0 0 1-1.414 1.414l-2.83-2.83zm11.31 11.31a1 1 0 0 1 1.414-1.414l2.83 2.83a1 1 0 0 1-1.414 1.414l-2.83-2.83zM2 13a1 1 0 0 1 0-2h4a1 1 0 1 1 0 2H2zm16 0a1 1 0 0 1 0-2h4a1 1 0 0 1 0 2h-4zM5.637 19.777a1 1 0 1 1-1.414-1.414l2.83-2.83a1 1 0 1 1 1.414 1.414l-2.83 2.83zm11.31-11.31a1 1 0 0 1-1.414-1.414l2.83-2.83a1 1 0 0 1 1.414 1.414l-2.83 2.83z"/></svg>