<svg viewBox="0 0 24 24" xmlns="http://www.w3.org/2000/svg"><path d="M20.995 15.747A9.5 9.5 0 0 1 12.503 21a9.38 9.38 0 0 1-3.87-.824L3.317 21.95a1 1 0 0 1-1.265-1.265l1.773-5.318a9.498 9.498 0 0 1 4.424-12.36A9.379 9.379 0 0 1 12.5 2l.555.001C17.88 2.268 21.732 6.121 22 11v.499a9.377 9.377 0 0 1-1.005 4.248zM4.58 19.42l3.803-1.268a1 1 0 0 1 .767.056A7.382 7.382 0 0 0 12.5 19a7.502 7.502 0 0 0 6.707-4.15A7.38 7.38 0 0 0 20 11.502l.002-.448C19.792 7.248 16.752 4.21 13 4h-.503a7.386 7.386 0 0 0-3.35.795A7.5 7.5 0 0 0 5 11.503a7.38 7.38 0 0 0 .793 3.346 1 1 0 0 1 .056.767L4.58 19.42zm3.92-4.482a.5.5 0 1 1 0-1h3.704a.5.5 0 1 1 0 1H8.5zM8.5 10a.5.5 0 0 1 0-1h6.173a.5.5 0 1 1 0 1H8.5zm0 2.469a.5.5 0 1 1 0-1h8.642a.5.5 0 1 1 0 1H8.5z"/></svg>