<svg viewBox="0 0 24 24" xmlns="http://www.w3.org/2000/svg"><path d="M3.403 21.912a.81.81 0 0 1-.914.223L2.35 22.1c-.562-.141-.704-.666-.549-1.072V4.798c0-1.7 1.297-2.997 2.997-2.997h14.405c1.7 0 2.997 1.297 2.997 2.997v10.289c0 1.7-1.297 2.998-2.997 2.998H7.231l-3.807 3.803a2.07 2.07 0 0 1-.021.024zm-.667-1.365c-.257-.063-.366-.084-.52.032a.805.805 0 0 1 .52-.032zm.665-.897l2.934-2.93a.8.8 0 0 1 .565-.235h12.303c.816 0 1.397-.582 1.397-1.398V4.798c0-.816-.581-1.397-1.397-1.397H4.798c-.816 0-1.397.581-1.397 1.397V19.65zm4.278-6.533a.5.5 0 1 1 0-1h3.704a.5.5 0 1 1 0 1H7.679zm0-4.938a.5.5 0 0 1 0-1h6.173a.5.5 0 1 1 0 1H7.679zm0 2.469a.5.5 0 0 1 0-1h8.642a.5.5 0 1 1 0 1H7.679z"/></svg>