<svg viewBox="0 0 24 24" xmlns="http://www.w3.org/2000/svg"><path d="M17.495 16.08a1.002 1.002 0 0 1 .374.375l5.838 5.838a1 1 0 0 1-1.414 1.414l-5.359-5.359A7.998 7.998 0 0 1 13 19.988V22h3a1 1 0 0 1 0 2H8a1 1 0 0 1 0-2h3v-2.011A7.997 7.997 0 0 1 4 12v-2a1 1 0 0 1 2 0v2.007a6 6 0 0 0 5.705 6.037 1 1 0 0 1 .59 0 6.002 6.002 0 0 0 3.211-1.124l-1.476-1.476A4 4 0 0 1 8 12V9.414L.293 1.707A1 1 0 1 1 1.707.293L17.495 16.08zM10 11.415V12a2 2 0 0 0 2.516 1.93L10 11.415zm6-2.074a1 1 0 0 1-2 0V3.999a2 2 0 0 0-3.96-.4 1 1 0 0 1-1.96-.398A4 4 0 0 1 16 4v5.34zm2 .66a1 1 0 0 1 2 0v2a8 8 0 0 1-.126 1.407 1 1 0 1 1-1.968-.354c.062-.348.094-.7.094-1.053v-2z"/></svg>