<svg viewBox="0 0 24 24" xmlns="http://www.w3.org/2000/svg" xmlns:xlink="http://www.w3.org/1999/xlink"><defs><path d="M21 2H3c-.644 0-1 .316-1 .667v10.666c0 .351.356.667 1 .667h18c.644 0 1-.316 1-.667V2.667C22 2.316 21.644 2 21 2zm0-2c1.7 0 3 1.156 3 2.667v10.666C24 14.844 22.7 16 21 16H3c-1.7 0-3-1.156-3-2.667V2.667C0 1.156 1.3 0 3 0h18zm-9 13a5 5 0 1 1 0-10 5 5 0 0 1 0 10zm0-2a3 3 0 1 0 0-6 3 3 0 0 0 0 6z" id="a"/></defs><use xlink:href="#a" transform="translate(0 4)" fill-rule="evenodd"/></svg>