<svg viewBox="0 0 24 24" xmlns="http://www.w3.org/2000/svg"><path d="M11.526 22.96a2.983 2.983 0 0 1-1.022-.362L3.5 18.596A3 3 0 0 1 2 16V7.999c0-.47.111-.925.314-1.332a1.003 1.003 0 0 1 .25-.416 3.01 3.01 0 0 1 .94-.85l3.243-1.853a.973.973 0 0 1 .606-.345L10.5 1.404a2.998 2.998 0 0 1 2.996-.002L20.5 5.404c.375.217.692.508.937.848a1.001 1.001 0 0 1 .25.414A3 3 0 0 1 22 8v8.001a3.002 3.002 0 0 1-1.504 2.597L13.5 22.596a3 3 0 0 1-1.025.364.996.996 0 0 1-.949 0zM13 20.579l6.5-3.714A1 1 0 0 0 20 16V8.538l-2.927 1.693a.971.971 0 0 1-.192.11L13 12.587v7.991zm-2 0v-7.991l-7-4.05V16c0 .357.19.687.496.863L11 20.578zM7.55 5.393L5.039 6.828 12 10.855l2.507-1.45L11.5 7.67 7.55 5.393zm2.01-1.149L12.5 5.94c1.155.666.155 2.398-1 1.732-1.155-.666-.155-2.398 1-1.732l4.005 2.31 2.456-1.421L12.5 3.136a1.002 1.002 0 0 0-1.004.002L9.561 4.244zM12.5 5.94l-1 1.732 1-1.732z"/></svg>