<svg viewBox="0 0 24 24" xmlns="http://www.w3.org/2000/svg"><path d="M9.707 8.292a3 3 0 1 1-1.414 1.414L5.085 6.5l-1.28-1.28 1.28 1.28L6.5 5.086 5.086 6.5l-1.28-1.28 2.516 10.425 6.35 1.27 4.242-4.244-1.27-6.349L5.22 3.806l1.28 1.28 3.207 3.206zm.599 1.988A.997.997 0 0 0 10 11a1 1 0 1 0 .306-.72zm.763 8.354L5.304 17.48a1 1 0 0 1-.776-.746L1.064 2.383c-.358-.79.53-1.677 1.319-1.32l14.352 3.465a1 1 0 0 1 .746.776l1.153 5.765a1 1 0 0 1 1.073.224l3 3a1 1 0 0 1 0 1.414l-7 7a1 1 0 0 1-1.414 0l-3-3a1 1 0 0 1-.224-1.073zm2.638.073l-.293.293L15 20.586 20.586 15 19 13.414l-.293.293-5 5z"/></svg>