<svg viewBox="0 0 24 24" xmlns="http://www.w3.org/2000/svg"><path d="M7.814 17.586L1.7 23.7c-.2.2-.4.3-.7.3-.3 0-.5-.1-.7-.3-.4-.4-.4-1 0-1.4l22-22c.4-.4 1-.4 1.4 0 .4.4.4 1 0 1.4L12.116 13.284c.568.514 1.151.965 1.784 1.316l.7-.7c.8-.8 2.1-1.1 3.2-.7.8.3 1.7.5 2.6.6 1.5.2 2.6 1.5 2.6 3v3c0 .8-.3 1.6-.9 2.1-.6.5-1.3 1-2.1 1h-.3c-3.2-.4-6.4-1.5-9.1-3.2a18.022 18.022 0 0 1-2.786-2.114zm1.404-1.404c.77.694 1.568 1.285 2.482 1.818 2.5 1.6 5.3 2.6 8.2 2.9.4 0 .6-.1.8-.3.2-.2.3-.4.3-.7v-3c0-.5-.4-.9-.9-1-1-.1-2-.4-3-.8-.4-.1-.8-.1-1.1.2l-1.3 1.3c-.3.3-.8.4-1.2.2-.935-.624-1.932-1.308-2.8-2.1l-1.482 1.482zM5.2 13.8c-.3 0-.6-.2-.8-.5-1.8-2.7-2.9-5.8-3.2-9.1-.1-.7.1-1.5.6-2.1.5-.6 1.2-1 2-1.1h3.3c1.5 0 2.8 1.1 3 2.6.1.9.3 1.8.6 2.6.4 1.1.1 2.3-.7 3.2l-1.3 1.3c-.4.4-1 .4-1.4 0-.4-.4-.4-1 0-1.4L8.6 8c.3-.3.4-.8.3-1.1-.4-1-.6-2-.8-3-.1-.5-.5-.9-1-.9h-3c-.3 0-.6.2-.8.4-.1.2-.2.4-.2.7C3.4 7 4.4 9.8 6 12.3c.3.5.2 1.1-.3 1.4-.1.1-.3.1-.5.1z"/></svg>