<svg viewBox="0 0 24 24" xmlns="http://www.w3.org/2000/svg" xmlns:xlink="http://www.w3.org/1999/xlink"><defs><path d="M4.255.88c.48.206 1.033.324 1.608.324.719 0 1.43-.202 2.128-.612L9.002 0l1.011.592c.7.41 1.41.612 2.128.612A4.1 4.1 0 0 0 13.747.88l1.298-.557 2.402 2.599-.387 1.128c-.135.395-.203.899-.185 1.51.016.518.075.782.372 1.629.087.248.124.357.17.497.415 1.267.585 2.488.585 4.265l-.01.195c-.2 2.054-1.879 3.98-4.527 5.624a22.219 22.219 0 0 1-2.906 1.505c-.29.125-.573.24-.841.343l-.716.274-.716-.274a22.2 22.2 0 0 1-.84-.343 22.214 22.214 0 0 1-2.907-1.505C1.89 16.125.245 14.212.012 12.075L0 11.855c.002-1.951.182-3.027.758-4.667.297-.846.356-1.11.371-1.627.018-.612-.05-1.115-.185-1.507l-.39-1.131L2.958.324 4.255.88zm-.787 1.838l-.633.684c.213.62.318 1.358.293 2.218-.023.79-.144 1.264-.483 2.23-.476 1.357-.643 2.202-.645 4.008.154 1.408 1.442 2.877 3.594 4.212.84.522 1.744.98 2.643 1.368.275.119.531.223.765.312.234-.09.49-.193.765-.312a20.11 20.11 0 0 0 2.643-1.368c2.174-1.349 3.466-2.834 3.592-4.119 0-1.654-.16-2.648-.486-3.643a21.47 21.47 0 0 0-.157-.457c-.339-.967-.46-1.441-.483-2.232-.025-.86.08-1.598.292-2.216l-.633-.685a6.1 6.1 0 0 1-2.394.486c-1.092 0-2.149-.306-3.139-.886-.99.58-2.047.886-3.139.886a6.1 6.1 0 0 1-2.395-.486zm9.518 6.16a.293.293 0 0 1-.108.326l-1.667 1.634.398 2.323a.345.345 0 0 1-.145.363.514.514 0 0 1-.217.073h-.181L9 12.507l-2.066 1.09a.388.388 0 0 1-.398-.037.345.345 0 0 1-.145-.363l.398-2.323L5.122 9.24c-.108-.072-.145-.218-.108-.363.072-.145.18-.254.326-.254l2.283-.363 1.05-2.07c.11-.254.544-.254.653 0l1.051 2.106 2.32.327c.144.036.253.109.29.254z" id="a"/></defs><use xlink:href="#a" transform="translate(3 2)" fill-rule="evenodd"/></svg>