<svg viewBox="0 0 24 24" xmlns="http://www.w3.org/2000/svg"><path d="M12 15a3 3 0 1 1 0-6 3 3 0 0 1 0 6zm0-2a1 1 0 1 0 0-2 1 1 0 0 0 0 2zm3.533-4.532a1 1 0 1 1 1.414-1.415 7 7 0 0 1 0 9.905 1 1 0 1 1-1.414-1.415 5 5 0 0 0 0-7.075zm-7.066 7.065a1 1 0 1 1-1.414 1.415 7 7 0 0 1 0-9.905 1 1 0 0 1 1.414 1.415 5 5 0 0 0 0 7.075zm9.896-9.896a1 1 0 1 1 1.414-1.414c4.294 4.295 4.294 11.259 0 15.554a1 1 0 1 1-1.414-1.414 9 9 0 0 0 0-12.726zM5.637 18.363a1 1 0 1 1-1.414 1.414c-4.294-4.295-4.294-11.259 0-15.554a1 1 0 0 1 1.414 1.414 9 9 0 0 0 0 12.726z"/></svg>