<svg viewBox="0 0 24 24" xmlns="http://www.w3.org/2000/svg"><path d="M13 10.6l7.3-7.3c.4-.4 1-.4 1.4 0 .4.4.4 1 0 1.4L10.438 15.962c.357.598.562 1.295.562 2.038 0 2.2-1.8 4-4 4s-4-1.8-4-4 1.8-4 4-4c.743 0 1.44.205 2.038.562L11.6 12 9.038 9.438A3.967 3.967 0 0 1 7 10c-2.2 0-4-1.8-4-4s1.8-4 4-4 4 1.8 4 4c0 .743-.205 1.44-.562 2.038L13 10.6zM8.296 7.52a1.09 1.09 0 0 1 .224-.224C8.82 6.946 9 6.493 9 6c0-1.1-.9-2-2-2s-2 .9-2 2 .9 2 2 2c.493 0 .946-.18 1.296-.48zm0 8.96A1.99 1.99 0 0 0 7 16c-1.1 0-2 .9-2 2s.9 2 2 2 2-.9 2-2a1.99 1.99 0 0 0-.471-1.286 1.329 1.329 0 0 1-.233-.234zM21 21c-.3 0-.5-.1-.7-.3l-5.5-5.5c-.4-.4-.4-1 0-1.4.4-.4 1-.4 1.4 0l5.5 5.5c.4.4.4 1 0 1.4-.2.2-.4.3-.7.3z"/></svg>