<svg viewBox="0 0 24 24" xmlns="http://www.w3.org/2000/svg"><path d="M7.5 19.3v-.794C4.964 18.026 3 15.76 3 13.1c0-2.832 2.228-5.218 5-5.477.27-.684.68-1.304 1.2-1.823 1-1 2.4-1.6 3.8-1.6 1.092 0 2.183.365 3.086 1L17.25 4h-.55c-.6 0-1-.4-1-1s.4-1 1-1h2.9c.6 0 1 .4 1 1v3c0 .6-.4 1-1 1s-1-.4-1-1v-.548l-1.13 1.164c.592.882.93 1.933.93 2.984 0 1.4-.6 2.8-1.6 3.8-.84.925-1.964 1.425-3.133 1.562-.663 1.8-2.252 3.181-4.167 3.544v.794h.8c.6 0 1 .4 1 1s-.4 1-1 1h-.8v.7c0 .6-.4 1-1 1s-1-.4-1-1v-.7h-.9c-.6 0-1-.4-1-1s.4-1 1-1h.9zm.126-9.585C6.134 10.114 5 11.5 5 13.1c0 1.9 1.6 3.5 3.5 3.5 1.284 0 2.43-.73 3.04-1.79A4.829 4.829 0 0 1 9.2 13.4a5.356 5.356 0 0 1-1.574-3.685zm6.367 3.117A3.31 3.31 0 0 0 15.4 12c.6-.6 1-1.5 1-2.4 0-.9-.4-1.8-1-2.4-.6-.6-1.5-1-2.4-1-.9 0-1.8.4-2.4 1a3.32 3.32 0 0 0-.5.644c2.157.672 3.777 2.657 3.893 4.988zm-2.004-.006c-.113-1.39-1.078-2.58-2.359-3.032.045.81.368 1.604.97 2.206.388.386.865.67 1.389.826z"/></svg>