<svg viewBox="0 0 24 24" xmlns="http://www.w3.org/2000/svg"><path d="M20.25 9.64l-2.072 2.121c1.844 2.596 1.601 6.2-.728 8.439-1.2 1.4-2.9 2-4.6 2-1.7 0-3.4-.6-4.7-1.9a6.553 6.553 0 0 1-1.78-3.416A6.451 6.451 0 0 1 2.95 15.1c-2.6-2.6-2.6-6.8 0-9.3 1.3-1.3 2.9-2 4.7-2 1.391 0 2.663.418 3.77 1.162L13.526 3H12.25c-.6 0-1-.4-1-1s.4-1 1-1h3.8c.6 0 1 .4 1 1v3.8c0 .6-.4 1-1 1s-1-.4-1-1V4.284l-2.166 2.018a6.612 6.612 0 0 1 1.286 2.785c.948.198 1.856.61 2.646 1.236L18.89 8.2h-1.34c-.6 0-1-.4-1-1s.4-1 1-1h3.7c.6 0 1 .4 1 1V11c0 .6-.4 1-1 1s-1-.4-1-1V9.64zM8.455 16.948A5.24 5.24 0 0 0 9.55 18.9c1.8 1.8 4.7 1.8 6.5 0 1.8-1.8 1.8-4.7 0-6.5a4.81 4.81 0 0 0-1.805-1.163A6.338 6.338 0 0 1 12.35 15c-1.095 1.095-2.473 1.764-3.895 1.948zm3.64-7.956A4.59 4.59 0 0 0 10.95 7.1c-.9-.8-2.1-1.3-3.3-1.3-1.2 0-2.4.5-3.3 1.3-1.7 1.8-1.7 4.7.1 6.5a4.59 4.59 0 0 0 1.855 1.133c.187-1.448.841-2.746 1.845-3.833a6.624 6.624 0 0 1 3.945-1.908zm.154 2.042c-.992.114-1.95.517-2.699 1.266-.737.737-1.138 1.607-1.26 2.612a4.582 4.582 0 0 0 2.66-1.312 4.582 4.582 0 0 0 1.299-2.566z"/></svg>