<svg viewBox="0 0 24 24" xmlns="http://www.w3.org/2000/svg"><path d="M16.5 17.6h1.4c.6 0 1 .4 1 1s-.4 1-1 1h-1.4v1.2c0 .6-.4 1-1 1s-1-.4-1-1v-1.2h-1.3c-.6 0-1-.4-1-1s.4-1 1-1h1.3v-1.494a6.589 6.589 0 0 1-2.9-1.284 6.583 6.583 0 0 1-3 1.3V17.6H10c.6 0 1 .4 1 1s-.4 1-1 1H8.6v1.2c0 .6-.4 1-1 1s-1-.4-1-1v-1.2H5.3c-.6 0-1-.4-1-1s.4-1 1-1h1.3v-1.478C3.461 15.629 1 12.861 1 9.6 1 6 4 3 7.6 3a6.54 6.54 0 0 1 4 1.378A6.537 6.537 0 0 1 15.6 3c3.6 0 6.6 3 6.6 6.6 0 3.295-2.514 6.088-5.7 6.537V17.6zM12.994 5.832A6.522 6.522 0 0 1 14.2 9.6a6.522 6.522 0 0 1-1.206 3.768 4.53 4.53 0 0 0 2.606.832c2.5 0 4.6-2.1 4.6-4.6 0-2.5-2.1-4.6-4.6-4.6-.96 0-1.86.31-2.606.832zm-2.788 0A4.535 4.535 0 0 0 7.6 5C5.1 5 3 7.1 3 9.6c0 2.5 2.1 4.6 4.6 4.6.96 0 1.86-.31 2.606-.832A6.522 6.522 0 0 1 9 9.6c0-1.392.448-2.694 1.206-3.768zM11.6 7.36c-.38.667-.6 1.432-.6 2.24 0 .808.22 1.573.6 2.24.38-.667.6-1.432.6-2.24 0-.808-.22-1.573-.6-2.24z"/></svg>