<svg viewBox="0 0 24 24" xmlns="http://www.w3.org/2000/svg"><path d="M12.447 22.894a17.31 17.31 0 0 0 1.333-.765c.98-.612 1.96-1.323 2.879-2.126C19.354 17.643 21 14.969 21 12V5a1 1 0 0 0-.649-.936l-8-3a1 1 0 0 0-.702 0l-8 3A1 1 0 0 0 3 5v7c0 2.97 1.646 5.644 4.341 8.003a22.465 22.465 0 0 0 2.879 2.126c.591.37 1.056.627 1.333.765a1 1 0 0 0 .894 0zm-1.167-2.46a20.49 20.49 0 0 1-2.621-1.937C6.354 16.481 5 14.281 5 12V5.693l7-2.625 7 2.625V12c0 2.28-1.354 4.481-3.659 6.497A20.49 20.49 0 0 1 12 20.863a19.51 19.51 0 0 1-.72-.43z"/></svg>