<svg viewBox="0 0 24 24" xmlns="http://www.w3.org/2000/svg" xmlns:xlink="http://www.w3.org/1999/xlink"><defs><path d="M17.2 2l-8-2h-.5l-8 2c-.4.1-.7.5-.7 1v8c0 6.5 8.2 10.7 8.6 10.9.1.1.2.1.4.1s.3 0 .4-.1c.4-.2 8.6-4.4 8.6-10.9V3c0-.5-.3-.9-.8-1zM16 11c0 4.5-5.4 7.9-7 8.9-1.6-.9-7-4.3-7-8.9V3.8L9 2l7 1.8V11zm-3.768-3.64a1 1 0 0 1 1.536 1.28l-5 6a1 1 0 0 1-1.475.067l-3-3a1 1 0 0 1 1.414-1.414l2.226 2.226 4.299-5.16z" id="a"/></defs><use xlink:href="#a" transform="translate(3 1)" fill-rule="evenodd"/></svg>