<svg viewBox="0 0 24 24" xmlns="http://www.w3.org/2000/svg"><path d="M2.315 5.246L5.2 1.4A1 1 0 0 1 6 1h12a1 1 0 0 1 .8.4l2.885 3.846A1.016 1.016 0 0 1 22 6v14a3 3 0 0 1-3 3H5a3 3 0 0 1-3-3V6a1.016 1.016 0 0 1 .315-.754zM19 5l-1.5-2h-11L5 5h14zm1 2h-8c-1.333 0-1.333-2 0-2s1.333 2 0 2H4v13a1 1 0 0 0 1 1h14a1 1 0 0 0 1-1V7zm-8 0V5v2zm-4.8 4.6a1 1 0 1 1 1.6-1.2c.132.176.425.481.85.791.7.51 1.487.809 2.35.809s1.65-.3 2.35-.809c.425-.31.718-.615.85-.791a1 1 0 1 1 1.6 1.2c-.243.324-.669.769-1.274 1.209C14.506 13.549 13.325 14 12 14c-1.325 0-2.507-.45-3.526-1.191-.605-.44-1.031-.885-1.274-1.209z"/></svg>