<svg viewBox="0 0 24 24" xmlns="http://www.w3.org/2000/svg" xmlns:xlink="http://www.w3.org/1999/xlink"><defs><path d="M20.9 9.9h-3.487l2.786-2.786c.43-.43.431-1.127.002-1.559a1.097 1.097 0 0 0-1.553-.003L14.3 9.9h-2.2V7.7l4.348-4.348a1.097 1.097 0 0 0-.003-1.553 1.105 1.105 0 0 0-1.56.002L12.1 4.587V1.1a1.1 1.1 0 0 0-2.2 0v3.487L7.114 1.801A1.105 1.105 0 0 0 5.555 1.8a1.097 1.097 0 0 0-.003 1.553L9.9 7.7v2.2H7.7L3.352 5.552a1.097 1.097 0 0 0-1.553.003 1.105 1.105 0 0 0 .002 1.56L4.587 9.9H1.1a1.1 1.1 0 0 0 0 2.2h3.487l-2.786 2.786a1.105 1.105 0 0 0-.002 1.559 1.097 1.097 0 0 0 1.553.003L7.7 12.1h2.2v2.2l-4.348 4.348a1.097 1.097 0 0 0 .003 1.553 1.105 1.105 0 0 0 1.56-.002L9.9 17.413V20.9a1.1 1.1 0 0 0 2.2 0v-3.487l2.786 2.786c.43.43 1.127.431 1.559.002a1.097 1.097 0 0 0 .003-1.553L12.1 14.3v-2.2h2.2l4.348 4.348a1.097 1.097 0 0 0 1.553-.003 1.105 1.105 0 0 0-.002-1.56L17.413 12.1H20.9a1.1 1.1 0 0 0 0-2.2z" id="a"/></defs><use xlink:href="#a" transform="translate(1 1)" fill-rule="evenodd"/></svg>