<svg viewBox="0 0 24 24" xmlns="http://www.w3.org/2000/svg"><path d="M17.742 6.696c1.725.893 2.742 2.293 3.003 4.111 2.067.245 3.255 1.476 3.255 3.486 0 2.081-1.268 3.376-3.493 3.668l-.13.009h-9.033V7.374l.44-.298c1.905-1.291 3.943-1.423 5.958-.38zm-4.398 9.274h6.965c1.226-.175 1.691-.667 1.691-1.677 0-1.003-.446-1.43-1.623-1.516h-1.565v-1c0-1.55-.636-2.604-1.99-3.305-1.206-.624-2.33-.63-3.478-.008v7.506zm-4.75-7.25a1 1 0 1 1 2 0v8.25a1 1 0 0 1-2 0V8.72zm-2.75 1.375a1 1 0 1 1 2 0v6.875a1 1 0 0 1-2 0v-6.875zm-2.75 2.062a1 1 0 1 1 2 0v4.813a1 1 0 0 1-2 0v-4.813zm-2.75 2.006a1 1 0 1 1 2 0v2.406a1 1 0 0 1-2 0v-2.406z"/></svg>