<svg viewBox="0 0 24 24" xmlns="http://www.w3.org/2000/svg" xmlns:xlink="http://www.w3.org/1999/xlink"><defs><path d="M9.9 19.732v-5.62A3.31 3.31 0 0 1 7.888 12.1h-5.62A8.804 8.804 0 0 0 9.9 19.732zm2.2 0a8.804 8.804 0 0 0 7.632-7.632h-5.62a3.31 3.31 0 0 1-2.012 2.012v5.62zM2.268 9.9h5.62a3.301 3.301 0 0 1 6.224 0h5.62a8.802 8.802 0 0 0-17.464 0zM11 22C4.925 22 0 17.075 0 11S4.925 0 11 0s11 4.925 11 11-4.925 11-11 11zm0-9.9a1.1 1.1 0 1 0 0-2.2 1.1 1.1 0 0 0 0 2.2z" id="a"/></defs><use xlink:href="#a" transform="translate(1 1)" fill-rule="evenodd"/></svg>