<svg viewBox="0 0 24 24" xmlns="http://www.w3.org/2000/svg"><path d="M12 18a6 6 0 1 1 0-12 6 6 0 0 1 0 12zm0-2a4 4 0 1 0 0-8 4 4 0 0 0 0 8zM11 1a1 1 0 0 1 2 0v2a1 1 0 0 1-2 0V1zm0 20a1 1 0 0 1 2 0v2a1 1 0 0 1-2 0v-2zM3.513 4.927a1 1 0 0 1 1.414-1.414l1.42 1.42a1 1 0 0 1-1.414 1.414l-1.42-1.42zm14.14 14.14a1 1 0 0 1 1.414-1.414l1.42 1.42a1 1 0 0 1-1.414 1.414l-1.42-1.42zM1 13a1 1 0 0 1 0-2h2a1 1 0 0 1 0 2H1zm20 0a1 1 0 0 1 0-2h2a1 1 0 0 1 0 2h-2zM4.927 20.487a1 1 0 1 1-1.414-1.414l1.42-1.42a1 1 0 1 1 1.414 1.414l-1.42 1.42zm14.14-14.14a1 1 0 0 1-1.414-1.414l1.42-1.42a1 1 0 0 1 1.414 1.414l-1.42 1.42z"/></svg>