<svg viewBox="0 0 24 24" xmlns="http://www.w3.org/2000/svg"><path d="M13 4.414V9a1 1 0 0 1-2 0V4.414L8.707 6.707a1 1 0 0 1-1.414-1.414l4-4a1 1 0 0 1 1.414 0l4 4a1 1 0 1 1-1.414 1.414L13 4.414zM18 18a1 1 0 0 1-2 0 4 4 0 1 0-8 0 1 1 0 0 1-2 0 6 6 0 1 1 12 0zM3.513 10.927a1 1 0 0 1 1.414-1.414l1.42 1.42a1 1 0 0 1-1.414 1.414l-1.42-1.42zM1 19a1 1 0 0 1 0-2h2a1 1 0 0 1 0 2H1zm20 0a1 1 0 0 1 0-2h2a1 1 0 0 1 0 2h-2zm-1.933-6.653a1 1 0 0 1-1.414-1.414l1.42-1.42a1 1 0 0 1 1.414 1.414l-1.42 1.42zM23 21a1 1 0 0 1 0 2H1a1 1 0 0 1 0-2h22z"/></svg>