<svg viewBox="0 0 24 24" xmlns="http://www.w3.org/2000/svg"><path d="M6.504 1.005a.804.804 0 0 0-.225.061C4.557 1.807 3 3.358 3 5.404c0 1.793 1.05 3.321 2.571 4.17v4.85C4.05 15.271 3 16.807 3 18.6c0 2.046 1.557 3.59 3.279 4.33a.82.82 0 0 0 .737-.049.739.739 0 0 0 .355-.615v-2.933h1.543v2.933c.001.244.14.484.356.615.216.132.504.15.737.05 1.722-.742 3.279-2.285 3.279-4.331 0-1.793-1.05-3.329-2.572-4.178v-4.85c1.522-.848 2.572-2.376 2.572-4.17 0-2.045-1.557-3.596-3.279-4.337a.822.822 0 0 0-.74.051.738.738 0 0 0-.353.621V4.67H7.371V1.738c.004-.416-.433-.785-.867-.733zm10.301 0a.783.783 0 0 0-.643.481l-1.028 2.688a.71.71 0 0 0 .032.58l.691 1.314v4.713H15.6a.816.816 0 0 0-.08 0c-.377.037-.693.373-.691.733v10.753c0 .384.367.733.771.733h4.629c.403 0 .771-.35.771-.733V11.514c0-.384-.368-.733-.771-.733h-.258V6.068l.692-1.313a.71.71 0 0 0 .032-.58l-1.029-2.689a.791.791 0 0 0-.723-.481h-2.057a.811.811 0 0 0-.08 0zm.62 1.466h.98l.73 1.902-.626 1.191a.707.707 0 0 0-.08.329v4.888H17.4V5.893a.707.707 0 0 0-.08-.329l-.627-1.191.731-1.902zm-11.596.604v2.329c0 .384.367.733.771.733h3.086c.404 0 .771-.35.771-.733v-2.33c.753.603 1.286 1.412 1.286 2.33 0 1.393-.873 2.57-2.122 3.108a.75.75 0 0 0-.45.672v5.637a.75.75 0 0 0 .45.664c1.249.537 2.122 1.723 2.122 3.116 0 .918-.533 1.72-1.286 2.322V18.6c0-.384-.367-.733-.771-.733H6.6c-.404 0-.771.35-.771.733v2.322c-.753-.603-1.286-1.404-1.286-2.322 0-1.393.873-2.579 2.121-3.116a.75.75 0 0 0 .45-.664V9.184a.75.75 0 0 0-.45-.672c-1.248-.537-2.121-1.715-2.121-3.108 0-.918.533-1.727 1.286-2.33zm10.542 9.172h3.086v9.287h-3.086v-9.287z"/></svg>