<svg viewBox="0 0 24 24" xmlns="http://www.w3.org/2000/svg"><path d="M14.525 3.35A5.48 5.48 0 0 0 11 8.507a9.66 9.66 0 0 1-7.182-4.082 1 1 0 0 0-1.732.169c-.13.293-.313.793-.494 1.456-.596 2.193-.7 4.501.014 6.698.693 2.128 2.104 3.927 4.308 5.285a10.64 10.64 0 0 1-4.874.968c-1.053-.042-1.446 1.362-.526 1.873C10.554 26.452 22 20.36 22 8.5c0-.164-.008-.327-.023-.489a8.72 8.72 0 0 0 1.995-3.774c.218-.898-.793-1.587-1.548-1.054a9.9 9.9 0 0 1-2.291 1.202 5.48 5.48 0 0 0-5.608-1.035zm5.693 3.608a1 1 0 0 0-.28.9 3.5 3.5 0 0 1 .062.645c0 8.943-7.389 14.041-15.068 12.02a12.639 12.639 0 0 0 3.63-1.696 1 1 0 0 0-.156-1.74c-2.671-1.188-4.22-2.877-4.898-4.958-.528-1.622-.499-3.38-.104-5.086a11.66 11.66 0 0 0 8.622 3.487 1 1 0 0 0 .974-1v-1a3.48 3.48 0 1 1 6.105-2.344 1 1 0 0 0 1.043.302c.232-.07.461-.147.688-.23a6.72 6.72 0 0 1-.618.7z"/></svg>