<svg viewBox="0 0 24 24" xmlns="http://www.w3.org/2000/svg" xmlns:xlink="http://www.w3.org/1999/xlink"><defs><path d="M10.29 11.346c.015-.053.034-.105.058-.157l2.536-5.437a1 1 0 0 1 1.813.845l-2.536 5.438c-.024.05-.052.1-.083.144a3.001 3.001 0 0 1-3.36 4.87 3 3 0 0 1 1.573-5.703zm8.488 7.432a1 1 0 0 1-1.414-1.414 9 9 0 1 0-12.728 0 1 1 0 0 1-1.414 1.414c-4.296-4.296-4.296-11.26 0-15.556 4.296-4.296 11.26-4.296 15.556 0 4.296 4.296 4.296 11.26 0 15.556zm-1.883-2.377a1 1 0 0 1-1.414-1.415 5.973 5.973 0 0 0 1.75-3.954 1 1 0 0 1 1.998.096 7.973 7.973 0 0 1-2.334 5.273zm-7.33-1.164a1 1 0 1 0 .844-1.812 1 1 0 0 0-.845 1.812z" id="a"/></defs><use xlink:href="#a" transform="translate(1 2)" fill-rule="evenodd"/></svg>