<svg viewBox="0 0 24 24" xmlns="http://www.w3.org/2000/svg"><path d="M20 12l-.707.707L20 12l.707-.707L20 12zm0-1.414l2.293-2.293c.943-.943 2.357.471 1.414 1.414L21.414 12l2.293 2.293c.943.943-.471 2.357-1.414 1.414L20 13.414l-2.293 2.293c-.943.943-2.357-.471-1.414-1.414L18.586 12l-2.293-2.293c-.943-.943.471-2.357 1.414-1.414L20 10.586zM5.65 8l4.725-3.78A1 1 0 0 1 12 5v14a1 1 0 0 1-1.625.78L5.65 16H2a1 1 0 0 1-1-1V9a1 1 0 0 1 1-1h3.65zM10 7.08l-3.375 2.7A1 1 0 0 1 6 10H3v4h3a1 1 0 0 1 .625.22L10 16.92V7.08z"/></svg>