<svg viewBox="0 0 24 24" xmlns="http://www.w3.org/2000/svg" xmlns:xlink="http://www.w3.org/1999/xlink"><defs><path d="M16 2.842h3c1.657 0 3 1.273 3 2.842v9.474C22 16.728 20.657 18 19 18H3c-1.657 0-3-1.272-3-2.842V2.842C0 1.272 1.343 0 3 0h12c.552 0 1 .424 1 .947v1.895zm4 4.737V5.684c0-.523-.448-.947-1-.947H2v10.42c0 .524.448.948 1 .948h16c.552 0 1-.424 1-.947v-1.895h-2c-1.657 0-3-1.272-3-2.842s1.343-2.842 3-2.842h2zM2 2.842h12v-.947H3c-.552 0-1 .424-1 .947zm18 8.526V9.474h-2c-.552 0-1 .424-1 .947 0 .523.448.947 1 .947h2z" id="a"/></defs><use xlink:href="#a" transform="translate(1 3)" fill-rule="evenodd"/></svg>