<svg viewBox="0 0 24 24" xmlns="http://www.w3.org/2000/svg"><path d="M15.33 19.276A7.97 7.97 0 0 1 12 20a7.97 7.97 0 0 1-3.34-.729l.166 1.819c.047.517.481.912 1.004.91h4.334a1 1 0 0 0 1-.911l.166-1.813zm2.14-1.438l-.314 3.432A3 3 0 0 1 14.16 24H9.834a3 3 0 0 1-3-2.729l-.314-3.443A7.978 7.978 0 0 1 4 12c0-2.303.973-4.379 2.53-5.838l.314-3.432A3 3 0 0 1 9.83 0h4.346a3 3 0 0 1 3 2.729l.315 3.453A7.978 7.978 0 0 1 20 12a7.978 7.978 0 0 1-2.53 5.838zM15.35 4.733l-.166-1.823A1.001 1.001 0 0 0 14.18 2H9.831a1 1 0 0 0-.995.911L8.67 4.724A7.97 7.97 0 0 1 12 4a7.97 7.97 0 0 1 3.35.733zM8.08 7.457a6 6 0 1 0 7.733 9.175A5.986 5.986 0 0 0 18 12a6 6 0 0 0-9.813-4.632 1.006 1.006 0 0 1-.106.09zm6.127 5.336a1 1 0 0 1-1.414 1.414l-1.5-1.5A1 1 0 0 1 11 12V9a1 1 0 1 1 2 0v2.586l1.207 1.207z"/></svg>