<svg viewBox="0 0 24 24" xmlns="http://www.w3.org/2000/svg" xmlns:xlink="http://www.w3.org/1999/xlink"><defs><path d="M7.913 4.444a3.358 3.358 0 0 1-.188-1.11C7.725 1.491 9.203 0 11.025 0c1.823 0 3.3 1.492 3.3 3.333 0 .39-.066.764-.188 1.111h2.061a3.3 3.3 0 0 1 3.166 2.418l2.508 8.889c.5 1.77-.512 3.615-2.26 4.12a3.255 3.255 0 0 1-.905.129H3.292C1.474 20 0 18.508 0 16.667c0-.31.043-.618.127-.916l2.508-8.889a3.298 3.298 0 0 1 3.166-2.418h2.112zM5.8 6.667a1.1 1.1 0 0 0-1.055.806L2.237 16.36a1.13 1.13 0 0 0-.042.306c0 .613.491 1.11 1.097 1.11h15.415c.102 0 .203-.014.301-.042.583-.169.92-.784.754-1.374l-2.508-8.888a1.1 1.1 0 0 0-1.056-.806H5.801zm4.713 6.861c.117.112.175.24.175.382 0 .142-.052.27-.156.382a.478.478 0 0 1-.36.168.517.517 0 0 1-.365-.16l-1.662-1.55v1.168c0 .178-.054.313-.163.404a.609.609 0 0 1-.406.138.62.62 0 0 1-.414-.138c-.109-.091-.163-.226-.163-.404V9.542c0-.178.054-.313.163-.405A.62.62 0 0 1 7.577 9c.162 0 .297.046.406.137.109.092.163.227.163.405v2.734l1.518-1.504a.514.514 0 0 1 .372-.168c.142 0 .266.052.372.156.106.104.16.228.16.37a.527.527 0 0 1-.175.375l-1.01.97 1.131 1.053zm3.917-2.932c.172 0 .31.05.413.149.104.1.156.23.156.393v2.879c0 .606-.175 1.064-.524 1.374-.349.31-.86.466-1.533.466-.567 0-1.032-.102-1.397-.305a.615.615 0 0 1-.212-.187.429.429 0 0 1-.076-.249.51.51 0 0 1 .091-.313.288.288 0 0 1 .243-.122c.056 0 .121.012.197.035.076.022.155.05.236.08.162.06.31.11.447.145.137.035.284.053.44.053.325 0 .565-.074.722-.221.157-.148.235-.372.235-.672v-.412a1.129 1.129 0 0 1-.478.458c-.213.112-.45.168-.714.168-.323 0-.61-.077-.861-.23a1.566 1.566 0 0 1-.588-.652 2.161 2.161 0 0 1-.213-.982c0-.371.071-.698.213-.98a1.58 1.58 0 0 1 .588-.657c.25-.156.538-.233.861-.233.258 0 .493.054.703.164.21.11.37.26.481.454v-.076c0-.163.052-.292.156-.386a.592.592 0 0 1 .414-.141zm-1.42 2.84c-.268 0-.478-.086-.63-.26-.151-.172-.227-.414-.227-.725 0-.31.076-.553.227-.729.152-.175.362-.263.63-.263.269 0 .477.088.627.263.149.176.223.419.223.73 0 .31-.074.552-.223.725-.15.173-.358.26-.627.26zm-1.986-8.992c-.607 0-1.1-.497-1.1-1.11 0-.614.493-1.112 1.1-1.112.608 0 1.1.498 1.1 1.111 0 .614-.492 1.111-1.1 1.111z" id="a"/></defs><use xlink:href="#a" transform="translate(1 2)" fill-rule="evenodd"/></svg>