<svg viewBox="0 0 24 24" xmlns="http://www.w3.org/2000/svg"><path d="M21 9.9c-.3-4.8-4.092-8.7-8.982-8.9h-.5c-1.496 0-2.894.3-4.191 1-3.294 1.6-5.29 4.9-5.29 8.5 0 1.3.3 2.7.799 3.9l-1.797 5.3c-.1.4 0 .8.2 1 .3.2.499.3.798.3.1 0 .2 0 .3-.1l5.29-1.8c1.197.5 2.494.8 3.892.8 3.593 0 6.886-2 8.483-5.2.699-1.3.998-2.8.998-4.3v-.5zm-1.996.6c0 1.2-.3 2.3-.799 3.4-1.297 2.6-3.792 4.1-6.686 4.1-1.098 0-2.296-.3-3.294-.8-.2-.1-.499-.1-.798-.1l-3.793 1.3 1.298-3.8c.1-.3.1-.5-.1-.8-.5-1-.799-2.2-.799-3.3 0-2.9 1.597-5.4 4.192-6.7.998-.5 2.196-.8 3.294-.8h.399c3.792.2 6.787 3.2 7.086 7v.5zm-3.994 1.583v.96c0 .255-.096.51-.288.67-.192.16-.416.288-.672.288h-.096a7.22 7.22 0 0 1-2.913-1.023 6.727 6.727 0 0 1-2.017-2.014A6.362 6.362 0 0 1 8 8.055c0-.256.064-.512.224-.703A.99.99 0 0 1 8.864 7H9.92c.48 0 .897.352.96.831a3.5 3.5 0 0 0 .193.831c.128.352.032.736-.224 1.023l-.224.224c.384.576.864 1.087 1.472 1.47l.224-.223a1.001 1.001 0 0 1 1.025-.224c.256.096.544.16.832.192.48.064.832.48.832.96z"/></svg>