<svg viewBox="0 0 24 24" xmlns="http://www.w3.org/2000/svg"><path d="M14.9 16.925a5 5 0 0 0-5.79 0 1 1 0 1 1-1.16-1.63 6.995 6.995 0 0 1 4.663-1.267l-2.781-2.782a9.94 9.94 0 0 0-4.19 2.071 1 1 0 1 1-1.283-1.534A11.94 11.94 0 0 1 8.21 9.626L5.888 7.302a14.91 14.91 0 0 0-3.806 2.447A1 1 0 1 1 .758 8.251 16.91 16.91 0 0 1 4.386 5.8L.293 1.706A1 1 0 0 1 1.707.293l5.105 5.104.031.032 3.945 3.945c.063.05.12.106.17.169l12.75 12.75a1 1 0 0 1-1.415 1.414l-6.617-6.616a.997.997 0 0 1-.775-.166zm1.381-4.966a1 1 0 0 1 .878-1.798c.894.437 1.73.983 2.488 1.627a1 1 0 1 1-1.294 1.524 9.94 9.94 0 0 0-2.072-1.353zm-5.49-5.912a1 1 0 1 1-.161-1.994A17 17 0 0 1 23.242 8.25a1 1 0 0 1-1.324 1.5A15 15 0 0 0 10.79 6.047z"/></svg>