<svg viewBox="0 0 24 24" xmlns="http://www.w3.org/2000/svg"><path d="M23.51 6.177l.014.065A29.97 29.97 0 0 1 24 11.746a29.99 29.99 0 0 1-.49 5.497 3.786 3.786 0 0 1-2.652 2.723c-.759.203-2.242.328-4.327.407a124.103 124.103 0 0 1-5.948.076c-1.06-.013-2.122-.038-3.114-.076-2.085-.08-3.568-.204-4.333-.408-1.275-.35-2.276-1.34-2.66-2.707A29.964 29.964 0 0 1 0 11.755C-.01 9.92.15 8.088.49 6.217a3.786 3.786 0 0 1 2.652-2.723c.759-.203 2.242-.328 4.327-.407a124.103 124.103 0 0 1 5.947-.077c1.06.012 2.12.034 3.112.069 2.078.072 3.558.186 4.344.379a3.78 3.78 0 0 1 2.638 2.72zM22 11.744a28 28 0 0 0-.438-5.11 1.767 1.767 0 0 0-1.2-1.243c-.564-.137-1.98-.246-3.904-.313a133.873 133.873 0 0 0-5.85-.067c-1.045.013-2.09.037-3.063.074-1.917.073-3.33.192-3.873.337-.613.174-1.087.662-1.228 1.215A28.036 28.036 0 0 0 2 11.757a28.29 28.29 0 0 0 .422 5.05c.17.598.641 1.064 1.236 1.227.557.149 1.97.268 3.887.34a122.166 122.166 0 0 0 5.846.075c1.046-.013 2.09-.037 3.064-.074 1.917-.073 3.33-.192 3.873-.337.613-.174 1.087-.662 1.228-1.215.301-1.673.45-3.37.444-5.08zm-11.756 4.145a1 1 0 0 1-1.494-.869V8.48a1 1 0 0 1 1.494-.87l5.75 3.27a1 1 0 0 1 0 1.74l-5.75 3.27zm.506-5.69v3.102l2.727-1.551-2.727-1.55z"/></svg>