<svg viewBox="0 0 24 24" xmlns="http://www.w3.org/2000/svg"><path d="M.293 1.707A1 1 0 0 1 1.707.293L8.7 7.286l.016.016 7.984 7.984.016.016 6.991 6.99a1 1 0 0 1-1.414 1.415l-6.226-6.226-4.299 5.16c-.639.766-1.884.226-1.76-.765l.86-6.876H3a1 1 0 0 1-.768-1.64l4.415-5.3L.293 1.707zM5.135 13h6.45L8.068 9.481 5.135 13zm7.28 5.74l2.232-2.679-1.686-1.686-.546 4.365zm-.828-13.48l-.248.3A1 1 0 1 1 9.8 4.28l2.43-2.92c.639-.767 1.884-.228 1.761.763l-.59 4.75a1 1 0 1 1-1.984-.246l.17-1.366zM15.66 11a1 1 0 0 1 0-2H21a1 1 0 0 1 .768 1.641l-2.43 2.91a1 1 0 0 1-1.536-1.282L18.862 11H15.66z"/></svg>