<svg xmlns="http://www.w3.org/2000/svg" viewBox="0 0 20.1 17.6" fill="#3d5170"><path d="M17.1-.04c0 1.9-.4 2.9-1 3.6-.6.7-1.4 1-2.3 1.3-.9.2-1.9.3-2.7.6-.4.1-.8.3-1.2.6-.3.3-.5.7-.6 1.1h1.2c.1-.1.1-.2.2-.3.2-.1.4-.3.7-.4.7-.2 1.6-.3 2.6-.6s2.1-.7 2.9-1.6c.8-.9 1.3-2.3 1.3-4.4l-1.1.1zM5 7.66c-2.7 0-5 2.2-5 5 0 2.7 2.2 5 5 5 1.5 0 2.9-.7 3.8-1.7h2.6c.9 1.1 2.3 1.7 3.8 1.7 2.7 0 5-2.2 5-5 0-2.7-2.2-5-5-5H5zm0 1.2h10.1c2.1 0 3.8 1.7 3.8 3.8 0 2.1-1.7 3.8-3.8 3.8-1.3 0-2.5-.7-3.2-1.7H8.2c-.7 1-1.8 1.7-3.2 1.7-2.1 0-3.8-1.7-3.8-3.8s1.7-3.8 3.8-3.8zm0 1.3c-.4 0-.8.3-.8.8v.8h-.8c-.4 0-.8.3-.8.8 0 .4.3.8.8.8h.8v.8c0 .4.3.8.8.8.4 0 .8-.3.8-.8v-.8h.8c.4 0 .8-.3.8-.8 0-.4-.3-.8-.8-.8h-.8v-.8c0-.5-.3-.8-.8-.8zm10.1 0c-.2 0-.4.1-.6.2-.3.3-.3.8 0 1.1.3.3.8.3 1.1 0 .3-.3.3-.8 0-1.1-.1-.1-.3-.2-.5-.2zm-1.5 1.6c-.2 0-.4.1-.6.2-.3.3-.3.8 0 1.1.3.3.8.3 1.1 0 .3-.3.3-.8 0-1.1-.1-.2-.3-.2-.5-.2zm3.1 0c-.2 0-.4.1-.6.2-.3.3-.3.8 0 1.1.3.3.8.3 1.1 0 .3-.3.3-.8 0-1.1-.1-.2-.3-.2-.5-.2zm-1.6 1.5c-.2 0-.4.1-.6.2-.3.3-.3.8 0 1.1.3.3.8.3 1.1 0 .3-.3.3-.8 0-1.1-.1-.1-.3-.2-.5-.2z"/></svg>
