<svg xmlns="http://www.w3.org/2000/svg" viewBox="0 0 24 24" fill="#3d5170"><path d="M10.4 21c-2 0-3.8-.8-5.2-2.2C3.7 17.4 3 15.6 3 13.6s.8-3.8 2.2-5.2C6.5 7 8.4 6.2 10.4 6.2s3.8.8 5.2 2.2c1.4 1.4 2.2 3.3 2.2 5.2s-.8 3.8-2.2 5.2c-1.4 1.4-3.2 2.2-5.2 2.2zm0-12.8c-1.4 0-2.8.6-3.8 1.6S5 12.1 5 13.6s.6 2.8 1.6 3.8S9 19 10.4 19s2.8-.6 3.8-1.6 1.6-2.4 1.6-3.8-.6-2.8-1.6-3.8-2.4-1.6-3.8-1.6z"/><path d="M15.1 9.9c-.3 0-.5-.1-.7-.3-.4-.4-.4-1 0-1.4l4.9-4.9c.4-.4 1-.4 1.4 0s.4 1 0 1.4l-4.9 4.9c-.2.2-.4.3-.7.3z"/><path d="M20 9.3c-.6 0-1-.4-1-1V5h-3.3c-.6 0-1-.4-1-1s.4-1 1-1H20c.6 0 1 .4 1 1v4.3c0 .6-.4 1-1 1z"/></svg>