<svg xmlns="http://www.w3.org/2000/svg" viewBox="0 0 24 24" fill="#3d5170"><path d="M8 15.8c-3.6 0-6.6-3-6.6-6.6s3-6.6 6.6-6.6 6.6 3 6.6 6.6-3 6.6-6.6 6.6zM8 4.6c-2.5 0-4.6 2.1-4.6 4.6 0 2.5 2.1 4.6 4.6 4.6 2.5 0 4.6-2.1 4.6-4.6 0-2.5-2.1-4.6-4.6-4.6z"/><path d="M8 21.4c-.6 0-1-.4-1-1v-5.3c0-.6.4-1 1-1s1 .4 1 1v5.3c0 .6-.4 1-1 1z"/><path d="M10.4 19.2H5.7c-.6 0-1-.4-1-1s.4-1 1-1h4.7c.6 0 1 .4 1 1s-.4 1-1 1zM16 15.8c-3.6 0-6.6-3-6.6-6.6s3-6.6 6.6-6.6c3.6 0 6.6 3 6.6 6.6s-3 6.6-6.6 6.6zm0-11.2c-2.5 0-4.6 2.1-4.6 4.6 0 2.5 2.1 4.6 4.6 4.6s4.6-2.1 4.6-4.6c0-2.5-2.1-4.6-4.6-4.6z"/><path d="M15.9 21.4c-.6 0-1-.4-1-1v-5.3c0-.6.4-1 1-1s1 .4 1 1v5.3c0 .6-.4 1-1 1z"/><path d="M18.3 19.2h-4.7c-.6 0-1-.4-1-1s.4-1 1-1h4.7c.6 0 1 .4 1 1s-.4 1-1 1z"/></svg>