<svg xmlns="http://www.w3.org/2000/svg" viewBox="0 0 24 24" fill="#102533"><path d="M13.2 14.5c-1.4 0-2.8-.5-3.8-1.6-2.1-2.1-2.1-5.5 0-7.6 1-1 2.4-1.6 3.8-1.6s2.8.6 3.8 1.6 1.6 2.4 1.6 3.8-.6 2.8-1.6 3.8c-1 1.1-2.4 1.6-3.8 1.6zm0-8.8c-.9 0-1.8.4-2.4 1-1.3 1.3-1.3 3.5 0 4.8 1.3 1.3 3.5 1.3 4.8 0 .6-.6 1-1.5 1-2.4s-.4-1.8-1-2.4c-.6-.6-1.5-1-2.4-1z"/><path d="M16.5 6.9c-.3 0-.5-.1-.7-.3-.4-.4-.4-1 0-1.4l3.3-3.4c.4-.4 1-.4 1.4 0 .4.4.4 1 0 1.4l-3.3 3.4c-.2.2-.4.3-.7.3z"/><path d="M19.8 6.5c-.6 0-1-.4-1-1v-2h-1.9c-.6 0-1-.4-1-1s.4-1 1-1h2.9c.6 0 1 .4 1 1v3c0 .6-.4 1-1 1zM8.7 18.1c-3 0-5.5-2.5-5.5-5.5s2.5-5.5 5.5-5.5 5.5 2.5 5.5 5.5-2.5 5.5-5.5 5.5zm0-9c-1.9 0-3.5 1.6-3.5 3.5s1.6 3.5 3.5 3.5 3.5-1.6 3.5-3.5-1.6-3.5-3.5-3.5z"/><path d="M8.7 22.5c-.6 0-1-.4-1-1v-4.2c0-.6.4-1 1-1s1 .4 1 1v4.2c0 .6-.4 1-1 1z"/><path d="M10.5 20.8H6.8c-.6 0-1-.4-1-1s.4-1 1-1h3.7c.6 0 1 .4 1 1s-.4 1-1 1z"/></svg>