<svg viewBox="0 0 26 26" xmlns="http://www.w3.org/2000/svg" fill="#102533"><path d="M24.51 3.177l.014.065A29.97 29.97 0 0 1 25 8.746a29.99 29.99 0 0 1-.49 5.497 3.786 3.786 0 0 1-2.652 2.723c-.759.203-2.242.328-4.327.407a124.103 124.103 0 0 1-5.948.076c-1.06-.013-2.122-.038-3.114-.076-2.085-.08-3.568-.204-4.333-.408-1.275-.35-2.276-1.34-2.66-2.707A29.964 29.964 0 0 1 1 8.755c-.01-1.835.15-3.667.49-5.538A3.786 3.786 0 0 1 4.142.494C4.9.291 6.384.166 8.469.087A124.103 124.103 0 0 1 14.416.01c1.06.012 2.12.034 3.112.069 2.078.072 3.558.186 4.344.379a3.78 3.78 0 0 1 2.638 2.72zM11.244 12.89a1 1 0 0 1-1.494-.869V5.48a1 1 0 0 1 1.494-.87l5.75 3.27a1 1 0 0 1 0 1.74l-5.75 3.27zm3.233-4.139L11.75 7.2v3.1l2.727-1.55zm6.886-6.359c-.565-.137-1.981-.246-3.905-.313a133.873 133.873 0 0 0-5.85-.067c-1.045.013-2.09.037-3.063.074-1.917.073-3.33.192-3.873.337-.613.174-1.087.662-1.228 1.215A28.036 28.036 0 0 0 3 8.757c-.01 1.725.138 3.447.422 5.05.17.598.641 1.064 1.236 1.227.557.149 1.97.268 3.887.34a122.166 122.166 0 0 0 5.846.075c1.046-.013 2.09-.037 3.064-.074 1.917-.073 3.33-.192 3.873-.337.613-.174 1.087-.662 1.228-1.215.301-1.673.45-3.37.444-5.08a28 28 0 0 0-.438-5.11 1.767 1.767 0 0 0-1.2-1.242z"/></svg>