<svg xmlns="http://www.w3.org/2000/svg" viewBox="0 0 24 24"><path d="M12 23c-.5 0-1-.1-1.5-.4-.5-.3-.8-.6-1.1-1.1-.3-.5-.1-1.1.4-1.4.5-.3 1.1-.1 1.4.4.1.1.2.3.4.4.5.3 1.1.1 1.4-.4.3-.5.9-.6 1.4-.4.5.3.6.9.4 1.4C14 22.5 13 23 12 23zm5-5H2c-.6 0-1-.4-1-1s.4-1 1-1c1.1 0 2-.9 2-2V9c0-1.3.3-2.5.9-3.7.3-.5.9-.7 1.3-.4.5.3.7.9.4 1.3C6.2 7.1 6 8 6 9v5c0 .7-.2 1.4-.5 2H17c.6 0 1 .4 1 1s-.4 1-1 1zm2-4c-.6 0-1-.4-1-1V9c0-1-.3-2.1-.8-3-1.6-2.9-5.3-3.9-8.2-2.3-.4.3-1 .2-1.3-.3-.3-.5-.1-1.1.4-1.4 3.8-2.2 8.7-.8 10.9 3 .7 1.2 1 2.6 1 3.9v4c0 .7-.4 1.1-1 1.1z"/><path d="M23 24c-.3 0-.5-.1-.7-.3l-22-22C-.1 1.3-.1.7.3.3s1-.4 1.4 0l22 22c.4.4.4 1 0 1.4-.2.2-.4.3-.7.3z"/></svg>