<svg xmlns="http://www.w3.org/2000/svg" viewBox="0 0 24 24"><path d="M12.3 17.2c-1.6 0-3.2-.6-4.5-1.8-2.5-2.5-2.5-6.5 0-8.9s6.5-2.5 8.9 0c2.5 2.5 2.5 6.5 0 8.9-1.2 1.2-2.8 1.8-4.4 1.8zm0-10.6c-1.1 0-2.2.4-3 1.3-1.7 1.7-1.7 4.4 0 6.1 1.7 1.7 4.4 1.7 6.1 0 1.7-1.7 1.7-4.4 0-6.1-.9-.9-2-1.3-3.1-1.3z"/><path d="M16.5 7.6c-.3 0-.5-.1-.7-.3-.4-.4-.4-1 0-1.4l4.1-4c.4-.4 1-.4 1.4 0 .4.4.4 1 0 1.4l-4.1 4c-.2.2-.4.3-.7.3z"/><path d="M20.6 7.1c-.6 0-1-.4-1-1V3.6H17c-.6 0-1-.4-1-1s.4-1 1-1h3.6c.6 0 1 .4 1 1v3.5c0 .6-.4 1-1 1zM12.3 22.4c-.6 0-1-.4-1-1v-5c0-.6.4-1 1-1s1 .4 1 1v5c0 .6-.4 1-1 1z"/><path d="M14.5 20.4h-4.4c-.6 0-1-.4-1-1s.4-1 1-1h4.4c.6 0 1 .4 1 1s-.4 1-1 1z"/></svg>