<svg xmlns="http://www.w3.org/2000/svg" viewBox="0 0 24 24" fill="#263646"><path d="M12 23C5.9 23 1 18.1 1 12S5.9 1 12 1c3.1 0 5.8 1.2 7.7 3.3.4.4.3 1 0 1.4l-2.8 2.8c-.2.2-.5.3-.7.3-.3 0-.5-.1-.7-.3-.9-1-2.2-1.5-3.5-1.5-2.8 0-5 2.2-5 5s2.2 5 5 5c1.6 0 3.1-.8 4-2h-4c-.6 0-1-.4-1-1v-4c0-.6.4-1 1-1h9.8c.5 0 .9.4 1 .8.1.6.2 1.4.2 2.2 0 6.1-4.9 11-11 11zm0-20c-5 0-9 4-9 9s4 9 9 9 9-4 9-9c0-.3 0-.7-.1-1H13v2h4.7c.3 0 .6.2.8.4.2.3.2.6.1.9C17.7 17.1 15 19 12 19c-3.9 0-7-3.1-7-7s3.1-7 7-7c1.5 0 3 .5 4.2 1.4L17.6 5c-1.5-1.3-3.4-2-5.6-2z"/></svg>