<svg xmlns="http://www.w3.org/2000/svg" viewBox="0 0 24 24" fill="#263646"><path d="M14 17h-4c-.3 0-.6-.2-.8-.4L7.5 14H2c-.6 0-1-.4-1-1s.4-1 1-1h6c.3 0 .6.2.8.4l1.7 2.6h2.9l1.7-2.6c.2-.3.5-.4.8-.4h6c.6 0 1 .4 1 1s-.4 1-1 1h-5.5l-1.7 2.6c-.1.2-.4.4-.7.4z"/><path d="M20 21H4c-1.7 0-3-1.3-3-3v-5c0-.1 0-.3.1-.4l3.5-7.8C5 3.7 6.1 3 7.3 3h9.4c1.2 0 2.3.7 2.7 1.8l3.5 7.8c.1.1.1.3.1.4v5c0 1.7-1.3 3-3 3zM3 13.2V18c0 .6.4 1 1 1h16c.6 0 1-.4 1-1v-4.8l-3.4-7.6c-.1-.4-.5-.6-.9-.6H7.3c-.4 0-.8.2-.9.6L3 13.2zm2.5-8z"/></svg>