<svg xmlns="http://www.w3.org/2000/svg" viewBox="0 0 24 24" fill="#263646"><path d="M3 22c-.1 0-.3 0-.4-.1-.4-.1-.6-.5-.6-.9V5c0-1.7 1.3-3 3-3h14c1.7 0 3 1.3 3 3v10c0 1.7-1.3 3-3 3H7.4l-3.7 3.7c-.2.2-.4.3-.7.3zM5 4c-.6 0-1 .4-1 1v13.6l2.3-2.3c.2-.2.4-.3.7-.3h12c.6 0 1-.4 1-1V5c0-.6-.4-1-1-1H5z"/><path d="M18 13.4c-.2 0-.4-.1-.5-.3L16 9.3l-1.5 3.9c-.1.3-.4.4-.6.3-.3-.1-.4-.4-.3-.6l2-5c.2-.4.8-.4.9 0l2 5c.1.3 0 .5-.3.6 0-.1-.1-.1-.2-.1z"/><path d="M14.8 10.6h2.3v1h-2.3zM11.8 8.5H6.2c-.2 0-.4-.2-.4-.5s.2-.5.4-.5h5.5c.3 0 .5.2.5.5s-.2.5-.4.5z"/><path d="M9 8c-.3 0-.5-.2-.5-.5V7c0-.3.2-.5.5-.5s.5.2.5.5v.5c0 .3-.2.5-.5.5zM11 13.5c-.1 0-.2 0-.3-.1-.3-.3-3-2.9-3.5-3.6-.5-.5-.7-1.1-.7-1.8 0-.3.2-.5.5-.5s.5.2.5.5c0 .4.2.9.4 1.2.4.5 2.6 2.6 3.4 3.4.2.2.2.5 0 .7 0 .1-.2.2-.3.2z"/><path d="M7 13.5c-.1 0-.3-.1-.4-.2-.2-.2-.2-.5 0-.7.8-.8 3.1-2.9 3.5-3.4.2-.3.4-.8.4-1.2 0-.3.2-.5.5-.5s.5.2.5.5c0 .6-.2 1.2-.6 1.8-.5.7-3.3 3.3-3.6 3.6-.1.1-.2.1-.3.1z"/></svg>