<svg xmlns="http://www.w3.org/2000/svg" viewBox="0 0 24 24"><path d="M3 6C1.3 6 0 4.7 0 3s1.3-3 3-3 3 1.3 3 3-1.3 3-3 3zm0-2c.6 0 1-.4 1-1s-.4-1-1-1-1 .4-1 1 .4 1 1 1zm0 6c-.6 0-1 .4-1 1v9c0 .6.4 1 1 1s1-.4 1-1v-9c0-.6-.4-1-1-1zm0-2c1.7 0 3 1.3 3 3v9c0 1.7-1.3 3-3 3s-3-1.3-3-3v-9c0-1.7 1.3-3 3-3zm7 6.2v6c0 .4.4.7 1 .7s1-.3 1-.7V15c0-4.1 8-4.1 8 0v5.2c0 .4.4.7 1 .7s1-.3 1-.7v-6c0-4.4-3.1-4.2-6-4.2s-6-.2-6 4.2zM16 8c8.5 0 8 4.2 8 6.3v6.6c0 1.2-1.3 2.2-3 2.2s-3-1-3-2.2v-5.2c0-2.1-4-2.1-4 0v5.2c0 1.2-1.3 2.2-3 2.2s-3-1-3-2.2v-6.6C8 12.6 7.5 8 16 8z"/></svg>