<svg xmlns="http://www.w3.org/2000/svg" viewBox="0 0 24 24"><path d="M9.9 24c-4.5 0-7.1-2.7-8.9-8.7C-1.5 7.3.6 3.4 8.7 1c4.2-1.3 7-1.3 9.3-.1 2.2 1.2 3.8 3.6 5.1 7.8 2.4 8 .3 11.9-7.8 14.3-2.1.7-3.9 1-5.4 1zm4.3-22c-1.3 0-2.9.3-4.9.9C2.3 5 .8 7.8 2.9 14.7c2.1 7 4.9 8.5 11.8 6.4 7-2.1 8.5-4.9 6.4-11.8C20 5.6 18.8 3.6 17 2.6c-.8-.4-1.7-.6-2.8-.6z"/><path d="M16.2 17.4c-.4 0-.8-.3-.9-.7L11.6 6.3c-.2-.5.1-1.1.6-1.3.5-.2 1.1.1 1.3.6L17.1 16c.2.5-.1 1.1-.6 1.3-.1.1-.2.1-.3.1zM11.4 19c-.4 0-.8-.3-.9-.7L6.9 7.9c-.2-.5.1-1.1.6-1.2.5-.2 1.1.1 1.3.6l3.6 10.4c.2.5-.1 1.1-.6 1.3h-.4z"/><path d="M6 12.4c-.4 0-.8-.3-.9-.7-.2-.5.1-1.1.6-1.3l10.4-3.6c.5-.2 1.1.1 1.3.6.2.5-.1 1.1-.6 1.3L6.3 12.4H6zM7.6 17.2c-.4 0-.8-.3-.9-.7-.2-.5.1-1.1.6-1.3l10.4-3.6c.5-.2 1.1.1 1.3.6.2.5-.1 1.1-.6 1.3L7.9 17.1c-.1 0-.2.1-.3.1z"/></svg>